<svg width="89" height="95" viewBox="0 0 89 95" fill="none" xmlns="http://www.w3.org/2000/svg">
<path d="M69.4582 19H0V88.4077H69.4582V19Z" fill="white"/>
<path d="M69.4582 8.08241V19H0V8.08241C0 5.91219 1.76604 4.15607 3.94173 4.15607H65.5165C67.6952 4.15607 69.4582 5.91219 69.4582 8.08241Z" fill="#8155FF"/>
<path d="M58.6951 14.191C60.5 14.191 61.9632 12.7336 61.9632 10.9357C61.9632 9.13785 60.5 7.68039 58.6951 7.68039C56.8902 7.68039 55.427 9.13785 55.427 10.9357C55.427 12.7336 56.8902 14.191 58.6951 14.191Z" fill="#2B4183"/>
<path d="M58.6951 12.1569C59.7299 12.1569 60.5674 11.3226 60.5674 10.2919V1.86494C60.5674 0.834235 59.7299 0 58.6951 0C57.6604 0 56.8229 0.834235 56.8229 1.86494V10.2919C56.8229 11.3226 57.6604 12.1569 58.6951 12.1569Z" fill="#FFCB2D"/>
<path d="M35.6334 14.191C37.4384 14.191 38.9015 12.7336 38.9015 10.9357C38.9015 9.13785 37.4384 7.68039 35.6334 7.68039C33.8285 7.68039 32.3654 9.13785 32.3654 10.9357C32.3654 12.7336 33.8285 14.191 35.6334 14.191Z" fill="#2B4183"/>
<path d="M35.6335 12.1569C36.6682 12.1569 37.5057 11.3226 37.5057 10.2919V1.86494C37.5057 0.834235 36.6682 0 35.6335 0C34.5987 0 33.7612 0.834235 33.7612 1.86494V10.2919C33.7612 11.3226 34.5987 12.1569 35.6335 12.1569Z" fill="#FFCB2D"/>
<path d="M12.5717 14.191C14.3766 14.191 15.8398 12.7336 15.8398 10.9357C15.8398 9.13785 14.3766 7.68039 12.5717 7.68039C10.7668 7.68039 9.30359 9.13785 9.30359 10.9357C9.30359 12.7336 10.7668 14.191 12.5717 14.191Z" fill="#2B4183"/>
<path d="M12.5717 12.1569C13.6065 12.1569 14.444 11.3226 14.444 10.2919V1.86494C14.444 0.834235 13.6065 0 12.5717 0C11.537 0 10.6995 0.834235 10.6995 1.86494V10.2919C10.6995 11.3226 11.537 12.1569 12.5717 12.1569Z" fill="#FFCB2D"/>
<path d="M45.9904 43.3112H59.1963V30.1569H45.9904V43.3112Z" stroke="#F0E0DF" stroke-width="2.2132" stroke-miterlimit="10"/>
<path d="M28.4174 43.3112H41.6233V30.1569H28.4174V43.3112Z" stroke="#F0E0DF" stroke-width="2.2132" stroke-miterlimit="10"/>
<path d="M10.8474 43.3112H24.0532V30.1569H10.8474L10.8474 43.3112Z" stroke="#F0E0DF" stroke-width="2.2132" stroke-miterlimit="10"/>
<path d="M45.9904 60.0094H59.1963V46.8551H45.9904V60.0094Z" stroke="#F0E0DF" stroke-width="2.2132" stroke-miterlimit="10"/>
<path d="M28.4174 60.0094H41.6233V46.8551H28.4174V60.0094Z" stroke="#F0E0DF" stroke-width="2.2132" stroke-miterlimit="10"/>
<path d="M10.8474 60.0094H24.0532V46.8551H10.8474L10.8474 60.0094Z" fill="#F88AA0"/>
<path d="M15.6182 51.5503L19.2807 55.3104" stroke="white" stroke-width="2.0174" stroke-miterlimit="10"/>
<path d="M19.2807 51.5503L15.6182 55.3104" stroke="white" stroke-width="2.0174" stroke-miterlimit="10"/>
<path d="M45.9904 76.7076H59.1963V63.5533H45.9904V76.7076Z" stroke="#F0E0DF" stroke-width="2.2132" stroke-miterlimit="10"/>
<path d="M28.4174 76.7076H41.6233V63.5533H28.4174V76.7076Z" stroke="#F0E0DF" stroke-width="2.2132" stroke-miterlimit="10"/>
<path d="M10.8474 76.7076H24.0532V63.5533H10.8474L10.8474 76.7076Z" stroke="#F0E0DF" stroke-width="2.2132" stroke-miterlimit="10"/>
<path d="M68.2687 42.6729H61.8418V46.8894H68.2687V42.6729Z" fill="#FFA80A"/>
<path d="M69.2579 43.7671H60.8495C59.8936 43.7671 59.1168 42.9933 59.1168 42.0412C59.1168 41.0891 59.8936 40.3153 60.8495 40.3153H69.2579C70.2138 40.3153 70.9906 41.0891 70.9906 42.0412C70.9906 42.9933 70.2138 43.7671 69.2579 43.7671Z" fill="#FFCB2D"/>
<path d="M49.4707 49.0684L45.8467 52.6783L48.4021 55.2238L52.0262 51.6139L49.4707 49.0684Z" fill="#FFA80A"/>
<path d="M50.6113 48.9206L45.5499 53.9623C45.0401 54.4701 44.2117 54.4701 43.7019 53.9623C43.1921 53.4545 43.1921 52.6293 43.7019 52.1215L48.7634 47.0799C49.2731 46.5721 50.1015 46.5721 50.6113 47.0799C51.1241 47.5876 51.1241 48.4128 50.6113 48.9206Z" fill="#FFCB2D"/>
<path d="M64.9794 88.3503C76.977 88.3503 86.7029 78.6623 86.7029 66.7116C86.7029 54.7609 76.977 45.0729 64.9794 45.0729C52.9818 45.0729 43.2559 54.7609 43.2559 66.7116C43.2559 78.6623 52.9818 88.3503 64.9794 88.3503Z" fill="#F67B91"/>
<path d="M64.9795 87.1866C76.3318 87.1866 85.5347 78.0196 85.5347 66.7116C85.5347 55.4036 76.3318 46.2366 64.9795 46.2366C53.6271 46.2366 44.4242 55.4036 44.4242 66.7116C44.4242 78.0196 53.6271 87.1866 64.9795 87.1866Z" fill="#F88AA0"/>
<path d="M64.9794 84.8743C75.0497 84.8743 83.2133 76.7426 83.2133 66.7116C83.2133 56.6806 75.0497 48.5488 64.9794 48.5488C54.9091 48.5488 46.7455 56.6806 46.7455 66.7116C46.7455 76.7426 54.9091 84.8743 64.9794 84.8743Z" fill="#F6F6F6"/>
<g opacity="0.71">
<path opacity="0.71" d="M45.031 52.3422L72.6656 95L85.1523 84.3061L57.809 46.1247L45.031 52.3422Z" fill="white"/>
<path opacity="0.71" d="M59.7571 42.0654L87.3947 84.7232L88.9999 79.3763L61.6566 41.1949L59.7571 42.0654Z" fill="white"/>
</g>
<path d="M65.0703 52.6414C64.8184 52.6414 64.6121 52.4359 64.6121 52.185V51.112C64.6121 50.8581 64.8184 50.6556 65.0703 50.6556C65.3251 50.6556 65.5284 50.8611 65.5284 51.112V52.185C65.5284 52.4359 65.3221 52.6414 65.0703 52.6414Z" fill="#8054FF"/>
<path d="M65.0703 82.9882C64.8184 82.9882 64.6121 82.7827 64.6121 82.5318V81.4588C64.6121 81.2079 64.8184 81.0024 65.0703 81.0024C65.3251 81.0024 65.5284 81.2079 65.5284 81.4588V82.5318C65.5284 82.7827 65.3221 82.9882 65.0703 82.9882Z" fill="#8054FF"/>
<path d="M54.6774 56.9275C54.5591 56.9275 54.4437 56.8821 54.3527 56.7945L53.5911 56.0358C53.412 55.8575 53.412 55.5673 53.5911 55.389C53.7701 55.2106 54.0614 55.2106 54.2404 55.389L55.0021 56.1476C55.1811 56.326 55.1811 56.6161 55.0021 56.7945C54.9141 56.8851 54.7957 56.9275 54.6774 56.9275Z" fill="#8054FF"/>
<path d="M76.222 78.3848C76.1036 78.3848 75.9883 78.3395 75.8973 78.2518L75.1356 77.4932C74.9566 77.3148 74.9566 77.0247 75.1356 76.8463C75.3146 76.668 75.606 76.668 75.785 76.8463L76.5466 77.605C76.7257 77.7833 76.7257 78.0735 76.5466 78.2518C76.4556 78.3425 76.3373 78.3848 76.222 78.3848Z" fill="#8054FF"/>
<path d="M53.9187 78.3848C53.8003 78.3848 53.685 78.3395 53.594 78.2518C53.415 78.0735 53.415 77.7833 53.594 77.605L54.3556 76.8463C54.5347 76.668 54.826 76.668 55.005 76.8463C55.184 77.0247 55.184 77.3148 55.005 77.4932L54.2434 78.2518C54.1523 78.3425 54.034 78.3848 53.9187 78.3848Z" fill="#8054FF"/>
<path d="M75.4601 56.9275C75.3417 56.9275 75.2264 56.8821 75.1354 56.7945C74.9563 56.6161 74.9563 56.326 75.1354 56.1476L75.897 55.389C76.0761 55.2106 76.3674 55.2106 76.5464 55.389C76.7254 55.5673 76.7254 55.8575 76.5464 56.0358L75.7847 56.7945C75.6937 56.8851 75.5754 56.9275 75.4601 56.9275Z" fill="#8054FF"/>
<path d="M50.3745 67.2768H49.2973C49.0424 67.2768 48.8391 67.0713 48.8391 66.8204C48.8391 66.5695 49.0455 66.364 49.2973 66.364H50.3745C50.6294 66.364 50.8327 66.5695 50.8327 66.8204C50.8327 67.0743 50.6294 67.2768 50.3745 67.2768Z" fill="#8054FF"/>
<path d="M80.8402 67.2768H79.763C79.5111 67.2768 79.3048 67.0713 79.3048 66.8204C79.3048 66.5695 79.5111 66.364 79.763 66.364H80.8402C81.0921 66.364 81.2984 66.5695 81.2984 66.8204C81.2984 67.0743 81.0921 67.2768 80.8402 67.2768Z" fill="#8054FF"/>
<path d="M66.1657 66.6481H63.9749V57.1844C63.9749 56.5829 64.4664 56.0932 65.0703 56.0932C65.6741 56.0932 66.1657 56.5829 66.1657 57.1844V66.6481Z" fill="#8054FF"/>
<path d="M65.0702 69.1508C66.4579 69.1508 67.5828 68.0303 67.5828 66.6481C67.5828 65.2659 66.4579 64.1454 65.0702 64.1454C63.6826 64.1454 62.5577 65.2659 62.5577 66.6481C62.5577 68.0303 63.6826 69.1508 65.0702 69.1508Z" fill="#2B4183"/>
</svg>
