<svg width="23" height="32" viewBox="0 0 23 32" fill="none" xmlns="http://www.w3.org/2000/svg">
<g clip-path="url(#clip0)">
<path d="M6.16677 32C9.11077 32 11.5005 29.6102 11.5005 26.6662V21.3325H6.16677C3.22277 21.3325 0.833008 23.7222 0.833008 26.6662C0.833008 29.6102 3.22277 32 6.16677 32Z" fill="#0ACF83"/>
<path d="M0.833008 16C0.833008 13.056 3.22277 10.6662 6.16677 10.6662H11.5005V21.3324H6.16677C3.22277 21.3337 0.833008 18.9439 0.833008 16Z" fill="#A259FF"/>
<path d="M0.833008 5.33376C0.833008 2.38976 3.22277 0 6.16677 0H11.5005V10.6662H6.16677C3.22277 10.6662 0.833008 8.27776 0.833008 5.33376Z" fill="#F24E1E"/>
<path d="M11.4993 0H16.833C19.777 0 22.1668 2.38976 22.1668 5.33376C22.1668 8.27776 19.777 10.6662 16.833 10.6662H11.4993V0Z" fill="#FF7262"/>
<path d="M22.1668 16C22.1668 18.944 19.777 21.3338 16.833 21.3338C13.889 21.3338 11.4993 18.944 11.4993 16C11.4993 13.056 13.889 10.6662 16.833 10.6662C19.777 10.6662 22.1668 13.056 22.1668 16Z" fill="#1ABCFE"/>
</g>
<defs>
<clipPath id="clip0">
<rect width="21.3338" height="32" fill="white" transform="translate(0.833008)"/>
</clipPath>
</defs>
</svg>
