<svg width="62" height="47" viewBox="0 0 62 47" fill="none" xmlns="http://www.w3.org/2000/svg">
<path d="M58.3876 3.61683C57.2466 2.47042 55.8907 1.5608 54.3979 0.940144C52.905 0.319488 51.3044 0 49.6879 0C48.0714 0 46.4709 0.319488 44.978 0.940144C43.4851 1.5608 42.1293 2.47042 40.9882 3.61683L43.895 6.52712C44.657 5.7641 45.5618 5.15883 46.5575 4.74589C47.5532 4.33294 48.6204 4.1204 49.6982 4.1204C50.7759 4.1204 51.8431 4.33294 52.8388 4.74589C53.8345 5.15883 54.7393 5.7641 55.5014 6.52712C56.2634 7.29015 56.868 8.19599 57.2804 9.19293C57.6928 10.1899 57.9051 11.2584 57.9051 12.3375C57.9051 13.4166 57.6928 14.4851 57.2804 15.482C56.868 16.4789 56.2634 17.3848 55.5014 18.1478L39.1255 34.5439C37.5891 36.0849 35.5042 36.9517 33.3295 36.9536C31.1548 36.9555 29.0684 36.0924 27.5293 34.5541C25.9902 33.0158 25.1245 30.9284 25.1226 28.751C25.1206 26.5736 25.9827 24.4847 27.5191 22.9437L30.4053 20.0334L27.5191 17.1231L24.6124 20.0334C23.4674 21.1758 22.5589 22.5333 21.939 24.028C21.3191 25.5228 21 27.1253 21 28.7438C21 30.3622 21.3191 31.9648 21.939 33.4595C22.5589 34.9542 23.4674 36.3117 24.6124 37.4542C26.9285 39.7434 30.0575 41.0187 33.3121 40.9998C34.9347 41.0065 36.5426 40.6911 38.0429 40.072C39.5431 39.4529 40.906 38.5422 42.0527 37.3927L58.4285 20.9966C60.7231 18.6855 62.0076 15.557 62 12.2982C61.9923 9.03952 60.693 5.91709 58.3876 3.61683Z" fill="#FFF0F0"/>
<path d="M6.74724 40.4712C5.96473 39.7082 5.34381 38.8014 4.92011 37.8027C4.49642 36.804 4.27831 35.7331 4.27831 34.6516C4.27831 33.5701 4.49642 32.4992 4.92011 31.5005C5.34381 30.5018 5.96473 29.5949 6.74724 28.832L23.5118 12.4098C24.2907 11.6432 25.2165 11.035 26.236 10.6199C27.2555 10.2049 28.3487 9.99125 29.4528 9.99125C30.5569 9.99125 31.65 10.2049 32.6696 10.6199C33.6891 11.035 34.6149 11.6432 35.3937 12.4098C36.1713 13.1787 36.7834 14.0928 37.1938 15.0977C37.6041 16.1026 37.8044 17.178 37.7827 18.2602C37.7891 19.3457 37.5757 20.4217 37.1548 21.4259C36.734 22.4301 36.1141 23.3426 35.3309 24.1106L30.8883 28.524L33.864 31.439L38.3066 27.0871C40.6714 24.7706 42 21.6286 42 18.3525C42 15.0764 40.6714 11.9345 38.3066 9.61798C35.9417 7.30142 32.7343 6 29.3899 6C26.0455 6 22.8381 7.30142 20.4733 9.61798L3.70865 26.0402C2.53332 27.1848 1.6006 28.5458 0.964128 30.0448C0.327658 31.5438 0 33.1513 0 34.7748C0 36.3982 0.327658 38.0057 0.964128 39.5047C1.6006 41.0037 2.53332 42.3647 3.70865 43.5093C6.09514 45.7848 9.30572 47.0398 12.6358 46.999C15.9952 47.0022 19.2195 45.7034 21.6049 43.3862L18.6291 40.4712C17.8503 41.2377 16.9245 41.846 15.905 42.261C14.8854 42.6761 13.7923 42.8897 12.6882 42.8897C11.5841 42.8897 10.4909 42.6761 9.47142 42.261C8.45189 41.846 7.52611 41.2377 6.74724 40.4712Z" fill="#FFF0F0"/>
</svg>
