<svg width="473" height="203" viewBox="0 0 473 203" fill="none" xmlns="http://www.w3.org/2000/svg">
<rect width="473" height="203" rx="14" fill="#F5F5F7"/>
<path d="M143.768 76.1334L146.815 67.337H148.353L144.398 78.001H143.153L139.205 67.337H140.736L143.768 76.1334ZM148.88 73.9654C148.88 73.189 149.032 72.4908 149.334 71.8707C149.642 71.2505 150.067 70.772 150.609 70.4351C151.156 70.0982 151.778 69.9297 152.477 69.9297C153.556 69.9297 154.427 70.3033 155.091 71.0504C155.76 71.7974 156.095 72.7911 156.095 74.0313V74.1265C156.095 74.898 155.946 75.5914 155.648 76.2066C155.355 76.817 154.933 77.293 154.381 77.6348C153.834 77.9766 153.204 78.1475 152.491 78.1475C151.417 78.1475 150.545 77.774 149.876 77.0269C149.212 76.2798 148.88 75.2911 148.88 74.0606V73.9654ZM150.243 74.1265C150.243 75.0054 150.445 75.711 150.851 76.2432C151.261 76.7755 151.808 77.0416 152.491 77.0416C153.18 77.0416 153.727 76.773 154.132 76.2359C154.537 75.6939 154.74 74.9371 154.74 73.9654C154.74 73.0963 154.532 72.3931 154.117 71.856C153.707 71.314 153.16 71.043 152.477 71.043C151.808 71.043 151.268 71.3091 150.858 71.8414C150.448 72.3736 150.243 73.1353 150.243 74.1265ZM160.973 77.0416C161.456 77.0416 161.878 76.8951 162.24 76.6021C162.601 76.3091 162.801 75.9429 162.84 75.5035H164.122C164.098 75.9576 163.941 76.3897 163.653 76.7999C163.365 77.21 162.979 77.5372 162.496 77.7813C162.018 78.0255 161.51 78.1475 160.973 78.1475C159.894 78.1475 159.034 77.7886 158.395 77.0709C157.76 76.3482 157.442 75.3619 157.442 74.1119V73.8848C157.442 73.1133 157.584 72.4273 157.867 71.8267C158.15 71.2261 158.556 70.7598 159.083 70.4278C159.615 70.0958 160.243 69.9297 160.965 69.9297C161.854 69.9297 162.591 70.1959 163.177 70.7281C163.768 71.2603 164.083 71.9512 164.122 72.8008H162.84C162.801 72.2881 162.606 71.8682 162.254 71.5411C161.908 71.209 161.478 71.043 160.965 71.043C160.277 71.043 159.742 71.2921 159.361 71.7901C158.985 72.2833 158.797 72.9986 158.797 73.9361V74.1924C158.797 75.1055 158.985 75.8087 159.361 76.3018C159.737 76.795 160.274 77.0416 160.973 77.0416ZM168.934 78.1475C167.86 78.1475 166.986 77.796 166.312 77.0928C165.638 76.3848 165.301 75.44 165.301 74.2584V74.0093C165.301 73.2232 165.45 72.5225 165.748 71.9073C166.051 71.2872 166.471 70.8038 167.008 70.4571C167.55 70.1055 168.136 69.9297 168.766 69.9297C169.796 69.9297 170.597 70.2691 171.168 70.9478C171.739 71.6265 172.025 72.5982 172.025 73.8629V74.4268H166.656C166.676 75.2081 166.903 75.8404 167.337 76.3238C167.777 76.8023 168.333 77.0416 169.007 77.0416C169.486 77.0416 169.891 76.9439 170.223 76.7486C170.555 76.5533 170.846 76.2945 171.095 75.9722L171.922 76.6168C171.258 77.6373 170.262 78.1475 168.934 78.1475ZM168.766 71.043C168.219 71.043 167.76 71.2432 167.389 71.6436C167.018 72.0391 166.788 72.5958 166.7 73.3135H170.67V73.211C170.631 72.5225 170.445 71.9903 170.113 71.6143C169.781 71.2335 169.332 71.043 168.766 71.043ZM170.978 68.7579V68.8311H169.857L168.758 67.586L167.667 68.8311H166.546V68.7432L168.348 66.751H169.168L170.978 68.7579ZM184.015 74.1265C184.015 75.3326 183.739 76.3043 183.187 77.0416C182.635 77.7789 181.888 78.1475 180.946 78.1475C179.984 78.1475 179.227 77.8423 178.675 77.232V81.0479H177.32V70.0762H178.558L178.624 70.9551C179.176 70.2715 179.942 69.9297 180.924 69.9297C181.876 69.9297 182.628 70.2886 183.18 71.0064C183.736 71.7242 184.015 72.7227 184.015 74.002V74.1265ZM182.66 73.9727C182.66 73.0792 182.469 72.3736 182.088 71.856C181.708 71.3384 181.185 71.0797 180.521 71.0797C179.701 71.0797 179.085 71.4434 178.675 72.171V75.9576C179.081 76.6802 179.701 77.0416 180.536 77.0416C181.185 77.0416 181.7 76.7852 182.081 76.2725C182.467 75.7549 182.66 74.9883 182.66 73.9727ZM185.384 73.9654C185.384 73.189 185.536 72.4908 185.838 71.8707C186.146 71.2505 186.571 70.772 187.113 70.4351C187.66 70.0982 188.282 69.9297 188.98 69.9297C190.06 69.9297 190.931 70.3033 191.595 71.0504C192.264 71.7974 192.599 72.7911 192.599 74.0313V74.1265C192.599 74.898 192.45 75.5914 192.152 76.2066C191.859 76.817 191.437 77.293 190.885 77.6348C190.338 77.9766 189.708 78.1475 188.995 78.1475C187.921 78.1475 187.049 77.774 186.38 77.0269C185.716 76.2798 185.384 75.2911 185.384 74.0606V73.9654ZM186.747 74.1265C186.747 75.0054 186.949 75.711 187.354 76.2432C187.765 76.7755 188.312 77.0416 188.995 77.0416C189.684 77.0416 190.23 76.773 190.636 76.2359C191.041 75.6939 191.244 74.9371 191.244 73.9654C191.244 73.0963 191.036 72.3931 190.621 71.856C190.211 71.314 189.664 71.043 188.98 71.043C188.312 71.043 187.772 71.3091 187.362 71.8414C186.952 72.3736 186.747 73.1353 186.747 74.1265ZM198.912 75.899C198.912 75.5328 198.773 75.2496 198.495 75.0494C198.221 74.8443 197.74 74.6685 197.052 74.522C196.368 74.3755 195.824 74.1998 195.418 73.9947C195.018 73.7896 194.72 73.5455 194.525 73.2623C194.334 72.9791 194.239 72.6422 194.239 72.2515C194.239 71.6021 194.513 71.0528 195.06 70.6036C195.611 70.1544 196.314 69.9297 197.169 69.9297C198.067 69.9297 198.795 70.1617 199.352 70.6255C199.913 71.0894 200.194 71.6827 200.194 72.4053H198.832C198.832 72.0342 198.673 71.7144 198.355 71.4459C198.043 71.1773 197.647 71.043 197.169 71.043C196.676 71.043 196.29 71.1505 196.012 71.3653C195.733 71.5801 195.594 71.8609 195.594 72.2076C195.594 72.5347 195.724 72.7813 195.982 72.9473C196.241 73.1133 196.708 73.272 197.381 73.4234C198.06 73.5748 198.609 73.7554 199.029 73.9654C199.449 74.1754 199.759 74.4293 199.959 74.7271C200.165 75.0201 200.267 75.379 200.267 75.8038C200.267 76.5118 199.984 77.0806 199.417 77.5103C198.851 77.9351 198.116 78.1475 197.213 78.1475C196.578 78.1475 196.017 78.0352 195.528 77.8106C195.04 77.586 194.657 77.2735 194.378 76.8731C194.105 76.4678 193.968 76.0308 193.968 75.5621H195.323C195.348 76.0162 195.528 76.3775 195.865 76.6461C196.207 76.9097 196.656 77.0416 197.213 77.0416C197.726 77.0416 198.136 76.939 198.443 76.7339C198.756 76.524 198.912 76.2457 198.912 75.899ZM206.646 75.899C206.646 75.5328 206.507 75.2496 206.229 75.0494C205.956 74.8443 205.475 74.6685 204.786 74.522C204.103 74.3755 203.558 74.1998 203.153 73.9947C202.752 73.7896 202.455 73.5455 202.259 73.2623C202.069 72.9791 201.974 72.6422 201.974 72.2515C201.974 71.6021 202.247 71.0528 202.794 70.6036C203.346 70.1544 204.049 69.9297 204.903 69.9297C205.802 69.9297 206.529 70.1617 207.086 70.6255C207.647 71.0894 207.928 71.6827 207.928 72.4053H206.566C206.566 72.0342 206.407 71.7144 206.09 71.4459C205.777 71.1773 205.382 71.043 204.903 71.043C204.41 71.043 204.024 71.1505 203.746 71.3653C203.468 71.5801 203.329 71.8609 203.329 72.2076C203.329 72.5347 203.458 72.7813 203.717 72.9473C203.976 73.1133 204.442 73.272 205.116 73.4234C205.794 73.5748 206.344 73.7554 206.764 73.9654C207.184 74.1754 207.494 74.4293 207.694 74.7271C207.899 75.0201 208.001 75.379 208.001 75.8038C208.001 76.5118 207.718 77.0806 207.152 77.5103C206.585 77.9351 205.851 78.1475 204.947 78.1475C204.312 78.1475 203.751 78.0352 203.263 77.8106C202.774 77.586 202.391 77.2735 202.113 76.8731C201.839 76.4678 201.703 76.0308 201.703 75.5621H203.058C203.082 76.0162 203.263 76.3775 203.6 76.6461C203.941 76.9097 204.391 77.0416 204.947 77.0416C205.46 77.0416 205.87 76.939 206.178 76.7339C206.49 76.524 206.646 76.2457 206.646 75.899ZM214.659 77.2173C214.132 77.8375 213.358 78.1475 212.337 78.1475C211.493 78.1475 210.848 77.9034 210.404 77.4151C209.964 76.9219 209.742 76.1944 209.737 75.2325V70.0762H211.092V75.1959C211.092 76.397 211.581 76.9976 212.557 76.9976C213.592 76.9976 214.281 76.6119 214.623 75.8404V70.0762H215.978V78.001H214.688L214.659 77.2173ZM219.515 78.001H218.16V70.0762H219.515V78.001ZM218.05 67.9742C218.05 67.7545 218.116 67.5689 218.248 67.4175C218.385 67.2662 218.585 67.1905 218.849 67.1905C219.112 67.1905 219.312 67.2662 219.449 67.4175C219.586 67.5689 219.654 67.7545 219.654 67.9742C219.654 68.1939 219.586 68.377 219.449 68.5235C219.312 68.67 219.112 68.7432 218.849 68.7432C218.585 68.7432 218.385 68.67 218.248 68.5235C218.116 68.377 218.05 68.1939 218.05 67.9742ZM226.686 70.0762L226.722 70.9551C227.303 70.2715 228.087 69.9297 229.073 69.9297C230.182 69.9297 230.936 70.3546 231.336 71.2042C231.6 70.8233 231.942 70.5157 232.362 70.2813C232.787 70.0469 233.287 69.9297 233.863 69.9297C235.602 69.9297 236.485 70.8502 236.515 72.691V78.001H235.16V72.7715C235.16 72.2051 235.03 71.7828 234.771 71.5045C234.513 71.2213 234.078 71.0797 233.468 71.0797C232.965 71.0797 232.547 71.231 232.215 71.5338C231.883 71.8316 231.69 72.2344 231.637 72.7422V78.001H230.274V72.8082C230.274 71.6558 229.71 71.0797 228.583 71.0797C227.694 71.0797 227.086 71.4581 226.759 72.2149V78.001H225.404V70.0762H226.686ZM241.854 78.1475C240.78 78.1475 239.906 77.796 239.232 77.0928C238.558 76.3848 238.221 75.44 238.221 74.2584V74.0093C238.221 73.2232 238.37 72.5225 238.668 71.9073C238.971 71.2872 239.391 70.8038 239.928 70.4571C240.47 70.1055 241.056 69.9297 241.686 69.9297C242.716 69.9297 243.517 70.2691 244.088 70.9478C244.659 71.6265 244.945 72.5982 244.945 73.8629V74.4268H239.576C239.596 75.2081 239.823 75.8404 240.257 76.3238C240.697 76.8023 241.253 77.0416 241.927 77.0416C242.406 77.0416 242.811 76.9439 243.143 76.7486C243.475 76.5533 243.766 76.2945 244.015 75.9722L244.842 76.6168C244.178 77.6373 243.182 78.1475 241.854 78.1475ZM241.686 71.043C241.139 71.043 240.68 71.2432 240.309 71.6436C239.938 72.0391 239.708 72.5958 239.62 73.3135H243.59V73.211C243.551 72.5225 243.365 71.9903 243.033 71.6143C242.701 71.2335 242.252 71.043 241.686 71.043ZM247.801 70.0762L247.845 71.0723C248.451 70.3106 249.242 69.9297 250.218 69.9297C251.893 69.9297 252.738 70.8746 252.752 72.7642V78.001H251.397V72.7569C251.393 72.1856 251.261 71.7632 251.002 71.4898C250.748 71.2164 250.35 71.0797 249.808 71.0797C249.369 71.0797 248.983 71.1968 248.651 71.4312C248.319 71.6656 248.06 71.9732 247.875 72.3541V78.001H246.52V70.0762H247.801ZM256.634 68.1573V70.0762H258.114V71.1236H256.634V76.0381C256.634 76.3555 256.7 76.5948 256.832 76.7559C256.964 76.9122 257.188 76.9903 257.506 76.9903C257.662 76.9903 257.877 76.961 258.15 76.9024V78.001C257.794 78.0987 257.447 78.1475 257.11 78.1475C256.505 78.1475 256.048 77.9644 255.741 77.5982C255.433 77.232 255.279 76.712 255.279 76.0381V71.1236H253.836V70.0762H255.279V68.1573H256.634ZM259.198 73.9654C259.198 73.189 259.349 72.4908 259.652 71.8707C259.959 71.2505 260.384 70.772 260.926 70.4351C261.473 70.0982 262.096 69.9297 262.794 69.9297C263.873 69.9297 264.745 70.3033 265.409 71.0504C266.078 71.7974 266.412 72.7911 266.412 74.0313V74.1265C266.412 74.898 266.263 75.5914 265.965 76.2066C265.672 76.817 265.25 77.293 264.698 77.6348C264.151 77.9766 263.521 78.1475 262.809 78.1475C261.734 78.1475 260.863 77.774 260.194 77.0269C259.53 76.2798 259.198 75.2911 259.198 74.0606V73.9654ZM260.56 74.1265C260.56 75.0054 260.763 75.711 261.168 76.2432C261.578 76.7755 262.125 77.0416 262.809 77.0416C263.497 77.0416 264.044 76.773 264.449 76.2359C264.854 75.6939 265.057 74.9371 265.057 73.9654C265.057 73.0963 264.85 72.3931 264.435 71.856C264.024 71.314 263.478 71.043 262.794 71.043C262.125 71.043 261.585 71.3091 261.175 71.8414C260.765 72.3736 260.56 73.1353 260.56 74.1265ZM271.942 71.2921C271.737 71.2579 271.515 71.2408 271.275 71.2408C270.387 71.2408 269.784 71.6192 269.466 72.376V78.001H268.111V70.0762H269.43L269.452 70.9918C269.896 70.2838 270.526 69.9297 271.341 69.9297C271.605 69.9297 271.805 69.9639 271.942 70.0323V71.2921ZM274.667 78.001H273.312V70.0762H274.667V78.001ZM273.202 67.9742C273.202 67.7545 273.268 67.5689 273.399 67.4175C273.536 67.2662 273.736 67.1905 274 67.1905C274.264 67.1905 274.464 67.2662 274.601 67.4175C274.737 67.5689 274.806 67.7545 274.806 67.9742C274.806 68.1939 274.737 68.377 274.601 68.5235C274.464 68.67 274.264 68.7432 274 68.7432C273.736 68.7432 273.536 68.67 273.399 68.5235C273.268 68.377 273.202 68.1939 273.202 67.9742ZM281.734 78.001C281.656 77.8448 281.593 77.5665 281.544 77.1661C280.914 77.8204 280.162 78.1475 279.288 78.1475C278.507 78.1475 277.865 77.9278 277.362 77.4883C276.864 77.044 276.615 76.4825 276.615 75.8038C276.615 74.9786 276.927 74.3389 277.552 73.8848C278.182 73.4258 279.066 73.1964 280.204 73.1964H281.522V72.5738C281.522 72.1002 281.38 71.7242 281.097 71.4459C280.814 71.1627 280.396 71.0211 279.845 71.0211C279.361 71.0211 278.956 71.1431 278.629 71.3873C278.302 71.6314 278.138 71.9268 278.138 72.2735H276.776C276.776 71.878 276.915 71.4971 277.193 71.1309C277.477 70.7598 277.857 70.4669 278.336 70.252C278.819 70.0372 279.349 69.9297 279.925 69.9297C280.838 69.9297 281.554 70.1592 282.071 70.6182C282.589 71.0723 282.857 71.6998 282.877 72.5005V76.148C282.877 76.8755 282.97 77.4542 283.155 77.8839V78.001H281.734ZM279.486 76.9683C279.911 76.9683 280.313 76.8585 280.694 76.6387C281.075 76.419 281.351 76.1334 281.522 75.7818V74.1558H280.46C278.8 74.1558 277.97 74.6417 277.97 75.6133C277.97 76.0381 278.111 76.3702 278.395 76.6094C278.678 76.8487 279.042 76.9683 279.486 76.9683ZM295.416 74.1265C295.416 75.3326 295.14 76.3043 294.588 77.0416C294.037 77.7789 293.29 78.1475 292.347 78.1475C291.385 78.1475 290.628 77.8423 290.077 77.232V81.0479H288.722V70.0762H289.959L290.025 70.9551C290.577 70.2715 291.344 69.9297 292.325 69.9297C293.277 69.9297 294.029 70.2886 294.581 71.0064C295.138 71.7242 295.416 72.7227 295.416 74.002V74.1265ZM294.061 73.9727C294.061 73.0792 293.871 72.3736 293.49 71.856C293.109 71.3384 292.586 71.0797 291.922 71.0797C291.102 71.0797 290.487 71.4434 290.077 72.171V75.9576C290.482 76.6802 291.102 77.0416 291.937 77.0416C292.586 77.0416 293.102 76.7852 293.482 76.2725C293.868 75.7549 294.061 74.9883 294.061 73.9727ZM302.037 78.001C301.959 77.8448 301.896 77.5665 301.847 77.1661C301.217 77.8204 300.465 78.1475 299.591 78.1475C298.81 78.1475 298.167 77.9278 297.665 77.4883C297.167 77.044 296.917 76.4825 296.917 75.8038C296.917 74.9786 297.23 74.3389 297.855 73.8848C298.485 73.4258 299.369 73.1964 300.506 73.1964H301.825V72.5738C301.825 72.1002 301.683 71.7242 301.4 71.4459C301.117 71.1627 300.699 71.0211 300.147 71.0211C299.664 71.0211 299.259 71.1431 298.932 71.3873C298.604 71.6314 298.441 71.9268 298.441 72.2735H297.079C297.079 71.878 297.218 71.4971 297.496 71.1309C297.779 70.7598 298.16 70.4669 298.639 70.252C299.122 70.0372 299.652 69.9297 300.228 69.9297C301.141 69.9297 301.856 70.1592 302.374 70.6182C302.892 71.0723 303.16 71.6998 303.18 72.5005V76.148C303.18 76.8755 303.272 77.4542 303.458 77.8839V78.001H302.037ZM299.789 76.9683C300.213 76.9683 300.616 76.8585 300.997 76.6387C301.378 76.419 301.654 76.1334 301.825 75.7818V74.1558H300.763C299.103 74.1558 298.272 74.6417 298.272 75.6133C298.272 76.0381 298.414 76.3702 298.697 76.6094C298.98 76.8487 299.344 76.9683 299.789 76.9683ZM309.134 71.2921C308.929 71.2579 308.707 71.2408 308.468 71.2408C307.579 71.2408 306.976 71.6192 306.659 72.376V78.001H305.304V70.0762H306.622L306.644 70.9918C307.088 70.2838 307.718 69.9297 308.534 69.9297C308.797 69.9297 308.998 69.9639 309.134 70.0323V71.2921ZM314.986 78.001C314.908 77.8448 314.845 77.5665 314.796 77.1661C314.166 77.8204 313.414 78.1475 312.54 78.1475C311.759 78.1475 311.117 77.9278 310.614 77.4883C310.116 77.044 309.867 76.4825 309.867 75.8038C309.867 74.9786 310.179 74.3389 310.804 73.8848C311.434 73.4258 312.318 73.1964 313.456 73.1964H314.774V72.5738C314.774 72.1002 314.632 71.7242 314.349 71.4459C314.066 71.1627 313.648 71.0211 313.097 71.0211C312.613 71.0211 312.208 71.1431 311.881 71.3873C311.554 71.6314 311.39 71.9268 311.39 72.2735H310.028C310.028 71.878 310.167 71.4971 310.445 71.1309C310.729 70.7598 311.109 70.4669 311.588 70.252C312.071 70.0372 312.601 69.9297 313.177 69.9297C314.09 69.9297 314.806 70.1592 315.323 70.6182C315.841 71.0723 316.109 71.6998 316.129 72.5005V76.148C316.129 76.8755 316.222 77.4542 316.407 77.8839V78.001H314.986ZM312.738 76.9683C313.163 76.9683 313.565 76.8585 313.946 76.6387C314.327 76.419 314.603 76.1334 314.774 75.7818V74.1558H313.712C312.052 74.1558 311.222 74.6417 311.222 75.6133C311.222 76.0381 311.363 76.3702 311.646 76.6094C311.93 76.8487 312.293 76.9683 312.738 76.9683ZM318.209 77.2906C318.209 77.0562 318.277 76.8609 318.414 76.7047C318.556 76.5484 318.766 76.4703 319.044 76.4703C319.322 76.4703 319.532 76.5484 319.674 76.7047C319.82 76.8609 319.894 77.0562 319.894 77.2906C319.894 77.5152 319.82 77.7032 319.674 77.8546C319.532 78.0059 319.322 78.0816 319.044 78.0816C318.766 78.0816 318.556 78.0059 318.414 77.8546C318.277 77.7032 318.209 77.5152 318.209 77.2906ZM318.216 70.8233C318.216 70.5889 318.285 70.3936 318.421 70.2374C318.563 70.0811 318.773 70.003 319.051 70.003C319.33 70.003 319.54 70.0811 319.681 70.2374C319.828 70.3936 319.901 70.5889 319.901 70.8233C319.901 71.0479 319.828 71.2359 319.681 71.3873C319.54 71.5386 319.33 71.6143 319.051 71.6143C318.773 71.6143 318.563 71.5386 318.421 71.3873C318.285 71.2359 318.216 71.0479 318.216 70.8233ZM139.696 97.9727C139.696 96.7276 139.981 95.7437 140.553 95.0211C141.124 94.2935 141.891 93.9297 142.853 93.9297C143.79 93.9297 144.53 94.2447 145.072 94.8746L145.13 94.0762H146.375V105.048H145.021V101.269C144.474 101.855 143.746 102.148 142.838 102.148C141.881 102.148 141.117 101.776 140.545 101.034C139.979 100.287 139.696 99.2984 139.696 98.0679V97.9727ZM141.051 98.1265C141.051 99.0347 141.241 99.7476 141.622 100.265C142.008 100.783 142.525 101.042 143.175 101.042C143.98 101.042 144.596 100.685 145.021 99.9722V96.0904C144.591 95.3922 143.98 95.043 143.189 95.043C142.535 95.043 142.015 95.3043 141.629 95.8267C141.244 96.3443 141.051 97.1109 141.051 98.1265ZM153.443 101.217C152.916 101.837 152.142 102.148 151.122 102.148C150.277 102.148 149.632 101.903 149.188 101.415C148.749 100.922 148.526 100.194 148.521 99.2325V94.0762H149.876V99.1959C149.876 100.397 150.365 100.998 151.341 100.998C152.376 100.998 153.065 100.612 153.407 99.8404V94.0762H154.762V102.001H153.473L153.443 101.217ZM161.72 102.001C161.642 101.845 161.578 101.566 161.529 101.166C160.899 101.82 160.147 102.148 159.273 102.148C158.492 102.148 157.85 101.928 157.347 101.488C156.849 101.044 156.6 100.482 156.6 99.8038C156.6 98.9786 156.913 98.3389 157.538 97.8848C158.167 97.4258 159.051 97.1964 160.189 97.1964H161.507V96.5738C161.507 96.1002 161.366 95.7242 161.083 95.4459C160.799 95.1627 160.382 95.0211 159.83 95.0211C159.347 95.0211 158.941 95.1431 158.614 95.3873C158.287 95.6314 158.124 95.9268 158.124 96.2735H156.761C156.761 95.878 156.9 95.4971 157.179 95.1309C157.462 94.7598 157.843 94.4669 158.321 94.252C158.805 94.0372 159.334 93.9297 159.911 93.9297C160.824 93.9297 161.539 94.1592 162.057 94.6182C162.574 95.0723 162.843 95.6998 162.862 96.5005V100.148C162.862 100.876 162.955 101.454 163.141 101.884V102.001H161.72ZM159.471 100.968C159.896 100.968 160.299 100.858 160.68 100.639C161.061 100.419 161.336 100.133 161.507 99.7818V98.1558H160.445C158.785 98.1558 157.955 98.6417 157.955 99.6133C157.955 100.038 158.097 100.37 158.38 100.609C158.663 100.849 159.027 100.968 159.471 100.968ZM165.016 101.291C165.016 101.056 165.084 100.861 165.221 100.705C165.362 100.548 165.572 100.47 165.851 100.47C166.129 100.47 166.339 100.548 166.48 100.705C166.627 100.861 166.7 101.056 166.7 101.291C166.7 101.515 166.627 101.703 166.48 101.855C166.339 102.006 166.129 102.082 165.851 102.082C165.572 102.082 165.362 102.006 165.221 101.855C165.084 101.703 165.016 101.515 165.016 101.291ZM176.976 102.001H175.614V92.9703L172.882 93.9737V92.7432L176.764 91.2857H176.976V102.001ZM185.399 102.001H184.037V92.9703L181.305 93.9737V92.7432L185.187 91.2857H185.399V102.001ZM189.779 102.917H188.614L193.067 91.337H194.225L189.779 102.917ZM200.003 102.001H198.641V92.9703L195.909 93.9737V92.7432L199.791 91.2857H200.003V102.001ZM210.96 102.001H203.973V101.027L207.665 96.9254C208.211 96.3052 208.587 95.8023 208.792 95.4166C209.002 95.0259 209.107 94.6231 209.107 94.2081C209.107 93.6514 208.939 93.1949 208.602 92.8384C208.265 92.482 207.816 92.3038 207.254 92.3038C206.581 92.3038 206.056 92.4966 205.68 92.8824C205.309 93.2632 205.123 93.7955 205.123 94.4791H203.768C203.768 93.4976 204.083 92.7042 204.713 92.0987C205.348 91.4932 206.195 91.1905 207.254 91.1905C208.246 91.1905 209.029 91.4517 209.605 91.9742C210.182 92.4918 210.47 93.1827 210.47 94.0469C210.47 95.0967 209.801 96.3467 208.463 97.7969L205.606 100.895H210.96V102.001ZM212.491 104.125L211.722 103.598C212.181 102.958 212.42 102.299 212.44 101.62V100.397H213.766V101.459C213.766 101.952 213.644 102.445 213.399 102.939C213.16 103.432 212.857 103.827 212.491 104.125ZM219.793 102.001H218.431V92.9703L215.699 93.9737V92.7432L219.581 91.2857H219.793V102.001ZM228.216 102.001H226.854V92.9703L224.122 93.9737V92.7432L228.004 91.2857H228.216V102.001ZM232.281 101.291C232.281 101.056 232.35 100.861 232.486 100.705C232.628 100.548 232.838 100.47 233.116 100.47C233.395 100.47 233.604 100.548 233.746 100.705C233.893 100.861 233.966 101.056 233.966 101.291C233.966 101.515 233.893 101.703 233.746 101.855C233.604 102.006 233.395 102.082 233.116 102.082C232.838 102.082 232.628 102.006 232.486 101.855C232.35 101.703 232.281 101.515 232.281 101.291ZM232.289 94.8233C232.289 94.5889 232.357 94.3936 232.494 94.2374C232.635 94.0811 232.845 94.003 233.124 94.003C233.402 94.003 233.612 94.0811 233.753 94.2374C233.9 94.3936 233.973 94.5889 233.973 94.8233C233.973 95.0479 233.9 95.2359 233.753 95.3873C233.612 95.5386 233.402 95.6143 233.124 95.6143C232.845 95.6143 232.635 95.5386 232.494 95.3873C232.357 95.2359 232.289 95.0479 232.289 94.8233ZM242.506 97.4527C242.506 99.0396 242.235 100.219 241.693 100.99C241.151 101.762 240.304 102.148 239.151 102.148C238.014 102.148 237.171 101.772 236.625 101.02C236.078 100.263 235.794 99.1348 235.775 97.6358V95.8267C235.775 94.2593 236.046 93.0948 236.588 92.3331C237.13 91.5714 237.979 91.1905 239.137 91.1905C240.284 91.1905 241.129 91.5591 241.671 92.2964C242.213 93.0289 242.491 94.1617 242.506 95.6949V97.4527ZM241.151 95.5997C241.151 94.4522 240.99 93.6172 240.667 93.0948C240.345 92.5674 239.835 92.3038 239.137 92.3038C238.443 92.3038 237.938 92.565 237.621 93.0875C237.303 93.6099 237.14 94.4131 237.13 95.4971V97.6651C237.13 98.8174 237.296 99.6695 237.628 100.221C237.965 100.768 238.473 101.042 239.151 101.042C239.82 101.042 240.316 100.783 240.638 100.265C240.965 99.7476 241.136 98.9322 241.151 97.8189V95.5997ZM250.929 97.4527C250.929 99.0396 250.658 100.219 250.116 100.99C249.574 101.762 248.727 102.148 247.574 102.148C246.437 102.148 245.594 101.772 245.047 101.02C244.5 100.263 244.217 99.1348 244.198 97.6358V95.8267C244.198 94.2593 244.469 93.0948 245.011 92.3331C245.553 91.5714 246.402 91.1905 247.56 91.1905C248.707 91.1905 249.552 91.5591 250.094 92.2964C250.636 93.0289 250.914 94.1617 250.929 95.6949V97.4527ZM249.574 95.5997C249.574 94.4522 249.413 93.6172 249.09 93.0948C248.768 92.5674 248.258 92.3038 247.56 92.3038C246.866 92.3038 246.361 92.565 246.043 93.0875C245.726 93.6099 245.562 94.4131 245.553 95.4971V97.6651C245.553 98.8174 245.719 99.6695 246.051 100.221C246.388 100.768 246.896 101.042 247.574 101.042C248.243 101.042 248.739 100.783 249.061 100.265C249.388 99.7476 249.559 98.9322 249.574 97.8189V95.5997ZM264.024 97.233H256.686V96.127H264.024V97.233ZM269.759 97.9727C269.759 96.7276 270.045 95.7437 270.616 95.0211C271.188 94.2935 271.954 93.9297 272.916 93.9297C273.854 93.9297 274.593 94.2447 275.135 94.8746L275.194 94.0762H276.439V105.048H275.084V101.269C274.537 101.855 273.81 102.148 272.901 102.148C271.944 102.148 271.18 101.776 270.609 101.034C270.042 100.287 269.759 99.2984 269.759 98.0679V97.9727ZM271.114 98.1265C271.114 99.0347 271.305 99.7476 271.686 100.265C272.071 100.783 272.589 101.042 273.238 101.042C274.044 101.042 274.659 100.685 275.084 99.9722V96.0904C274.654 95.3922 274.044 95.043 273.253 95.043C272.599 95.043 272.079 95.3043 271.693 95.8267C271.307 96.3443 271.114 97.1109 271.114 98.1265ZM283.507 101.217C282.979 101.837 282.206 102.148 281.185 102.148C280.34 102.148 279.696 101.903 279.251 101.415C278.812 100.922 278.59 100.194 278.585 99.2325V94.0762H279.94V99.1959C279.94 100.397 280.428 100.998 281.405 100.998C282.44 100.998 283.128 100.612 283.47 99.8404V94.0762H284.825V102.001H283.536L283.507 101.217ZM288.363 102.001H287.008V94.0762H288.363V102.001ZM286.898 91.9742C286.898 91.7545 286.964 91.5689 287.096 91.4175C287.232 91.2662 287.433 91.1905 287.696 91.1905C287.96 91.1905 288.16 91.2662 288.297 91.4175C288.434 91.5689 288.502 91.7545 288.502 91.9742C288.502 92.1939 288.434 92.377 288.297 92.5235C288.16 92.67 287.96 92.7432 287.696 92.7432C287.433 92.7432 287.232 92.67 287.096 92.5235C286.964 92.377 286.898 92.1939 286.898 91.9742ZM290.567 101.291C290.567 101.056 290.636 100.861 290.772 100.705C290.914 100.548 291.124 100.47 291.402 100.47C291.681 100.47 291.891 100.548 292.032 100.705C292.179 100.861 292.252 101.056 292.252 101.291C292.252 101.515 292.179 101.703 292.032 101.855C291.891 102.006 291.681 102.082 291.402 102.082C291.124 102.082 290.914 102.006 290.772 101.855C290.636 101.703 290.567 101.515 290.567 101.291ZM302.528 102.001H301.166V92.9703L298.434 93.9737V92.7432L302.315 91.2857H302.528V102.001ZM313.485 102.001H306.498V101.027L310.189 96.9254C310.736 96.3052 311.112 95.8023 311.317 95.4166C311.527 95.0259 311.632 94.6231 311.632 94.2081C311.632 93.6514 311.463 93.1949 311.126 92.8384C310.79 92.482 310.34 92.3038 309.779 92.3038C309.105 92.3038 308.58 92.4966 308.204 92.8824C307.833 93.2632 307.647 93.7955 307.647 94.4791H306.292C306.292 93.4976 306.607 92.7042 307.237 92.0987C307.872 91.4932 308.719 91.1905 309.779 91.1905C310.77 91.1905 311.554 91.4517 312.13 91.9742C312.706 92.4918 312.994 93.1827 312.994 94.0469C312.994 95.0967 312.325 96.3467 310.987 97.7969L308.131 100.895H313.485V102.001ZM315.331 102.917H314.166L318.619 91.337H319.776L315.331 102.917ZM325.555 102.001H324.193V92.9703L321.461 93.9737V92.7432L325.343 91.2857H325.555V102.001ZM336.512 102.001H329.525V101.027L333.216 96.9254C333.763 96.3052 334.139 95.8023 334.344 95.4166C334.554 95.0259 334.659 94.6231 334.659 94.2081C334.659 93.6514 334.491 93.1949 334.154 92.8384C333.817 92.482 333.368 92.3038 332.806 92.3038C332.132 92.3038 331.607 92.4966 331.231 92.8824C330.86 93.2632 330.675 93.7955 330.675 94.4791H329.32C329.32 93.4976 329.635 92.7042 330.265 92.0987C330.899 91.4932 331.747 91.1905 332.806 91.1905C333.797 91.1905 334.581 91.4517 335.157 91.9742C335.733 92.4918 336.021 93.1827 336.021 94.0469C336.021 95.0967 335.353 96.3467 334.015 97.7969L331.158 100.895H336.512V102.001ZM346.122 102.001H344.759V92.9703L342.027 93.9737V92.7432L345.909 91.2857H346.122V102.001ZM354.544 102.001H353.182V92.9703L350.45 93.9737V92.7432L354.332 91.2857H354.544V102.001ZM358.609 101.291C358.609 101.056 358.678 100.861 358.814 100.705C358.956 100.548 359.166 100.47 359.444 100.47C359.723 100.47 359.933 100.548 360.074 100.705C360.221 100.861 360.294 101.056 360.294 101.291C360.294 101.515 360.221 101.703 360.074 101.855C359.933 102.006 359.723 102.082 359.444 102.082C359.166 102.082 358.956 102.006 358.814 101.855C358.678 101.703 358.609 101.515 358.609 101.291ZM358.617 94.8233C358.617 94.5889 358.685 94.3936 358.822 94.2374C358.963 94.0811 359.173 94.003 359.452 94.003C359.73 94.003 359.94 94.0811 360.082 94.2374C360.228 94.3936 360.301 94.5889 360.301 94.8233C360.301 95.0479 360.228 95.2359 360.082 95.3873C359.94 95.5386 359.73 95.6143 359.452 95.6143C359.173 95.6143 358.963 95.5386 358.822 95.3873C358.685 95.2359 358.617 95.0479 358.617 94.8233ZM364.117 96.0098H365.135C365.775 96.0001 366.278 95.8316 366.644 95.5045C367.01 95.1773 367.193 94.7354 367.193 94.1788C367.193 92.9288 366.571 92.3038 365.326 92.3038C364.74 92.3038 364.271 92.4722 363.919 92.8091C363.573 93.1412 363.399 93.5831 363.399 94.1348H362.044C362.044 93.2901 362.352 92.5894 362.967 92.0328C363.587 91.4713 364.374 91.1905 365.326 91.1905C366.332 91.1905 367.12 91.4566 367.691 91.9888C368.263 92.5211 368.548 93.2608 368.548 94.2081C368.548 94.6719 368.397 95.1212 368.094 95.5557C367.796 95.9903 367.389 96.315 366.871 96.5298C367.457 96.7154 367.909 97.023 368.226 97.4527C368.548 97.8824 368.709 98.4073 368.709 99.0274C368.709 99.9844 368.397 100.744 367.772 101.305C367.147 101.867 366.334 102.148 365.333 102.148C364.332 102.148 363.517 101.877 362.887 101.335C362.262 100.793 361.949 100.077 361.949 99.1885H363.312C363.312 99.7501 363.495 100.199 363.861 100.536C364.227 100.873 364.718 101.042 365.333 101.042C365.987 101.042 366.488 100.871 366.834 100.529C367.181 100.187 367.354 99.6964 367.354 99.0567C367.354 98.4366 367.164 97.9605 366.783 97.6285C366.402 97.2964 365.853 97.1255 365.135 97.1158H364.117V96.0098ZM377.257 97.4527C377.257 99.0396 376.986 100.219 376.444 100.99C375.902 101.762 375.055 102.148 373.902 102.148C372.765 102.148 371.922 101.772 371.375 101.02C370.829 100.263 370.545 99.1348 370.526 97.6358V95.8267C370.526 94.2593 370.797 93.0948 371.339 92.3331C371.881 91.5714 372.73 91.1905 373.888 91.1905C375.035 91.1905 375.88 91.5591 376.422 92.2964C376.964 93.0289 377.242 94.1617 377.257 95.6949V97.4527ZM375.902 95.5997C375.902 94.4522 375.741 93.6172 375.418 93.0948C375.096 92.5674 374.586 92.3038 373.888 92.3038C373.194 92.3038 372.689 92.565 372.372 93.0875C372.054 93.6099 371.891 94.4131 371.881 95.4971V97.6651C371.881 98.8174 372.047 99.6695 372.379 100.221C372.716 100.768 373.224 101.042 373.902 101.042C374.571 101.042 375.067 100.783 375.389 100.265C375.716 99.7476 375.887 98.9322 375.902 97.8189V95.5997Z" fill="#0C0B0B"/>
<path d="M148.434 126.001H147.02V121.072H141.644V126.001H140.238V115.337H141.644V119.922H147.02V115.337H148.434V126.001ZM150.36 121.965C150.36 121.189 150.511 120.491 150.814 119.871C151.122 119.251 151.546 118.772 152.088 118.435C152.635 118.098 153.258 117.93 153.956 117.93C155.035 117.93 155.907 118.303 156.571 119.05C157.24 119.797 157.574 120.791 157.574 122.031V122.127C157.574 122.898 157.425 123.591 157.127 124.207C156.834 124.817 156.412 125.293 155.86 125.635C155.313 125.977 154.684 126.148 153.971 126.148C152.896 126.148 152.025 125.774 151.356 125.027C150.692 124.28 150.36 123.291 150.36 122.061V121.965ZM151.722 122.127C151.722 123.005 151.925 123.711 152.33 124.243C152.74 124.775 153.287 125.042 153.971 125.042C154.659 125.042 155.206 124.773 155.611 124.236C156.017 123.694 156.219 122.937 156.219 121.965C156.219 121.096 156.012 120.393 155.597 119.856C155.187 119.314 154.64 119.043 153.956 119.043C153.287 119.043 152.748 119.309 152.337 119.841C151.927 120.374 151.722 121.135 151.722 122.127ZM163.104 119.292C162.899 119.258 162.677 119.241 162.438 119.241C161.549 119.241 160.946 119.619 160.628 120.376V126.001H159.273V118.076H160.592L160.614 118.992C161.058 118.284 161.688 117.93 162.503 117.93C162.767 117.93 162.967 117.964 163.104 118.032V119.292ZM168.956 126.001C168.878 125.845 168.814 125.566 168.766 125.166C168.136 125.82 167.384 126.148 166.51 126.148C165.729 126.148 165.086 125.928 164.583 125.488C164.085 125.044 163.836 124.482 163.836 123.804C163.836 122.979 164.149 122.339 164.774 121.885C165.404 121.426 166.288 121.196 167.425 121.196H168.744V120.574C168.744 120.1 168.602 119.724 168.319 119.446C168.036 119.163 167.618 119.021 167.066 119.021C166.583 119.021 166.178 119.143 165.851 119.387C165.523 119.631 165.36 119.927 165.36 120.273H163.998C163.998 119.878 164.137 119.497 164.415 119.131C164.698 118.76 165.079 118.467 165.558 118.252C166.041 118.037 166.571 117.93 167.147 117.93C168.06 117.93 168.775 118.159 169.293 118.618C169.811 119.072 170.079 119.7 170.099 120.501V124.148C170.099 124.876 170.191 125.454 170.377 125.884V126.001H168.956ZM166.708 124.968C167.132 124.968 167.535 124.858 167.916 124.639C168.297 124.419 168.573 124.133 168.744 123.782V122.156H167.682C166.021 122.156 165.191 122.642 165.191 123.613C165.191 124.038 165.333 124.37 165.616 124.609C165.899 124.849 166.263 124.968 166.708 124.968ZM167.96 114.751H169.601L167.638 116.904H166.546L167.96 114.751ZM176.053 119.292C175.848 119.258 175.626 119.241 175.387 119.241C174.498 119.241 173.895 119.619 173.578 120.376V126.001H172.223V118.076H173.541L173.563 118.992C174.007 118.284 174.637 117.93 175.453 117.93C175.716 117.93 175.917 117.964 176.053 118.032V119.292ZM178.778 126.001H177.423V118.076H178.778V126.001ZM177.313 115.974C177.313 115.754 177.379 115.569 177.511 115.418C177.647 115.266 177.848 115.19 178.111 115.19C178.375 115.19 178.575 115.266 178.712 115.418C178.849 115.569 178.917 115.754 178.917 115.974C178.917 116.194 178.849 116.377 178.712 116.523C178.575 116.67 178.375 116.743 178.111 116.743C177.848 116.743 177.647 116.67 177.511 116.523C177.379 116.377 177.313 116.194 177.313 115.974ZM180.594 121.965C180.594 121.189 180.746 120.491 181.048 119.871C181.356 119.251 181.781 118.772 182.323 118.435C182.87 118.098 183.492 117.93 184.19 117.93C185.27 117.93 186.141 118.303 186.805 119.05C187.474 119.797 187.809 120.791 187.809 122.031V122.127C187.809 122.898 187.66 123.591 187.362 124.207C187.069 124.817 186.646 125.293 186.095 125.635C185.548 125.977 184.918 126.148 184.205 126.148C183.131 126.148 182.259 125.774 181.59 125.027C180.926 124.28 180.594 123.291 180.594 122.061V121.965ZM181.957 122.127C181.957 123.005 182.159 123.711 182.564 124.243C182.975 124.775 183.521 125.042 184.205 125.042C184.894 125.042 185.44 124.773 185.846 124.236C186.251 123.694 186.454 122.937 186.454 121.965C186.454 121.096 186.246 120.393 185.831 119.856C185.421 119.314 184.874 119.043 184.19 119.043C183.521 119.043 182.982 119.309 182.572 119.841C182.162 120.374 181.957 121.135 181.957 122.127ZM194.847 121.826V126.001H193.441V115.337H197.374C198.541 115.337 199.454 115.635 200.113 116.231C200.777 116.826 201.109 117.615 201.109 118.596C201.109 119.631 200.785 120.43 200.135 120.991C199.491 121.548 198.565 121.826 197.359 121.826H194.847ZM194.847 120.676H197.374C198.126 120.676 198.702 120.501 199.103 120.149C199.503 119.793 199.703 119.28 199.703 118.611C199.703 117.976 199.503 117.468 199.103 117.087C198.702 116.707 198.153 116.509 197.455 116.494H194.847V120.676ZM207.496 126.001C207.418 125.845 207.354 125.566 207.306 125.166C206.676 125.82 205.924 126.148 205.05 126.148C204.269 126.148 203.626 125.928 203.124 125.488C202.625 125.044 202.376 124.482 202.376 123.804C202.376 122.979 202.689 122.339 203.314 121.885C203.944 121.426 204.828 121.196 205.965 121.196H207.284V120.574C207.284 120.1 207.142 119.724 206.859 119.446C206.576 119.163 206.158 119.021 205.606 119.021C205.123 119.021 204.718 119.143 204.391 119.387C204.063 119.631 203.9 119.927 203.9 120.273H202.538C202.538 119.878 202.677 119.497 202.955 119.131C203.238 118.76 203.619 118.467 204.098 118.252C204.581 118.037 205.111 117.93 205.687 117.93C206.6 117.93 207.315 118.159 207.833 118.618C208.351 119.072 208.619 119.7 208.639 120.501V124.148C208.639 124.876 208.731 125.454 208.917 125.884V126.001H207.496ZM205.248 124.968C205.672 124.968 206.075 124.858 206.456 124.639C206.837 124.419 207.113 124.133 207.284 123.782V122.156H206.222C204.562 122.156 203.731 122.642 203.731 123.613C203.731 124.038 203.873 124.37 204.156 124.609C204.439 124.849 204.803 124.968 205.248 124.968ZM210.433 121.973C210.433 120.757 210.721 119.78 211.297 119.043C211.874 118.301 212.628 117.93 213.561 117.93C214.488 117.93 215.223 118.247 215.765 118.882V114.751H217.12V126.001H215.875L215.809 125.151C215.267 125.815 214.513 126.148 213.546 126.148C212.628 126.148 211.878 125.772 211.297 125.02C210.721 124.268 210.433 123.286 210.433 122.075V121.973ZM211.788 122.127C211.788 123.025 211.974 123.728 212.345 124.236C212.716 124.744 213.229 124.998 213.883 124.998C214.742 124.998 215.37 124.612 215.765 123.84V120.2C215.36 119.453 214.737 119.08 213.897 119.08C213.233 119.08 212.716 119.336 212.345 119.849C211.974 120.361 211.788 121.121 211.788 122.127ZM223.06 119.292C222.855 119.258 222.633 119.241 222.394 119.241C221.505 119.241 220.902 119.619 220.584 120.376V126.001H219.229V118.076H220.548L220.57 118.992C221.014 118.284 221.644 117.93 222.459 117.93C222.723 117.93 222.923 117.964 223.06 118.032V119.292ZM228.912 126.001C228.834 125.845 228.771 125.566 228.722 125.166C228.092 125.82 227.34 126.148 226.466 126.148C225.685 126.148 225.042 125.928 224.54 125.488C224.042 125.044 223.792 124.482 223.792 123.804C223.792 122.979 224.105 122.339 224.73 121.885C225.36 121.426 226.244 121.196 227.381 121.196H228.7V120.574C228.7 120.1 228.558 119.724 228.275 119.446C227.992 119.163 227.574 119.021 227.022 119.021C226.539 119.021 226.134 119.143 225.807 119.387C225.479 119.631 225.316 119.927 225.316 120.273H223.954C223.954 119.878 224.093 119.497 224.371 119.131C224.654 118.76 225.035 118.467 225.514 118.252C225.997 118.037 226.527 117.93 227.103 117.93C228.016 117.93 228.731 118.159 229.249 118.618C229.767 119.072 230.035 119.7 230.055 120.501V124.148C230.055 124.876 230.147 125.454 230.333 125.884V126.001H228.912ZM226.664 124.968C227.088 124.968 227.491 124.858 227.872 124.639C228.253 124.419 228.529 124.133 228.7 123.782V122.156H227.638C225.978 122.156 225.147 122.642 225.147 123.613C225.147 124.038 225.289 124.37 225.572 124.609C225.855 124.849 226.219 124.968 226.664 124.968ZM229.85 114.985C229.85 115.513 229.698 115.94 229.396 116.267C229.098 116.594 228.724 116.758 228.275 116.758C228.075 116.758 227.901 116.733 227.755 116.685C227.608 116.636 227.416 116.536 227.176 116.384C226.942 116.233 226.771 116.143 226.664 116.113C226.561 116.079 226.441 116.062 226.305 116.062C226.104 116.062 225.934 116.14 225.792 116.296C225.65 116.448 225.58 116.643 225.58 116.882L224.671 116.831C224.671 116.309 224.818 115.877 225.111 115.535C225.409 115.193 225.785 115.022 226.239 115.022C226.41 115.022 226.563 115.046 226.7 115.095C226.837 115.144 227.022 115.239 227.257 115.381C227.491 115.523 227.669 115.615 227.792 115.659C227.918 115.703 228.058 115.725 228.209 115.725C228.419 115.725 228.592 115.642 228.729 115.476C228.871 115.31 228.941 115.117 228.941 114.898L229.85 114.985ZM231.82 121.965C231.82 121.189 231.971 120.491 232.274 119.871C232.582 119.251 233.006 118.772 233.548 118.435C234.095 118.098 234.718 117.93 235.416 117.93C236.495 117.93 237.367 118.303 238.031 119.05C238.7 119.797 239.034 120.791 239.034 122.031V122.127C239.034 122.898 238.885 123.591 238.587 124.207C238.294 124.817 237.872 125.293 237.32 125.635C236.773 125.977 236.144 126.148 235.431 126.148C234.356 126.148 233.485 125.774 232.816 125.027C232.152 124.28 231.82 123.291 231.82 122.061V121.965ZM233.182 122.127C233.182 123.005 233.385 123.711 233.79 124.243C234.2 124.775 234.747 125.042 235.431 125.042C236.119 125.042 236.666 124.773 237.071 124.236C237.477 123.694 237.679 122.937 237.679 121.965C237.679 121.096 237.472 120.393 237.057 119.856C236.646 119.314 236.1 119.043 235.416 119.043C234.747 119.043 234.208 119.309 233.797 119.841C233.387 120.374 233.182 121.135 233.182 122.127ZM244.125 121.973C244.125 120.757 244.413 119.78 244.989 119.043C245.565 118.301 246.319 117.93 247.252 117.93C248.18 117.93 248.915 118.247 249.457 118.882V114.751H250.812V126.001H249.566L249.5 125.151C248.958 125.815 248.204 126.148 247.237 126.148C246.319 126.148 245.57 125.772 244.989 125.02C244.413 124.268 244.125 123.286 244.125 122.075V121.973ZM245.479 122.127C245.479 123.025 245.665 123.728 246.036 124.236C246.407 124.744 246.92 124.998 247.574 124.998C248.434 124.998 249.061 124.612 249.457 123.84V120.2C249.051 119.453 248.429 119.08 247.589 119.08C246.925 119.08 246.407 119.336 246.036 119.849C245.665 120.361 245.479 121.121 245.479 122.127ZM256.209 126.148C255.135 126.148 254.261 125.796 253.587 125.093C252.914 124.385 252.577 123.44 252.577 122.258V122.009C252.577 121.223 252.726 120.523 253.023 119.907C253.326 119.287 253.746 118.804 254.283 118.457C254.825 118.106 255.411 117.93 256.041 117.93C257.071 117.93 257.872 118.269 258.443 118.948C259.015 119.627 259.3 120.598 259.3 121.863V122.427H253.932C253.951 123.208 254.178 123.84 254.613 124.324C255.052 124.802 255.609 125.042 256.283 125.042C256.761 125.042 257.167 124.944 257.499 124.749C257.831 124.553 258.121 124.294 258.37 123.972L259.198 124.617C258.534 125.637 257.538 126.148 256.209 126.148ZM256.041 119.043C255.494 119.043 255.035 119.243 254.664 119.644C254.293 120.039 254.063 120.596 253.976 121.314H257.945V121.211C257.906 120.523 257.721 119.99 257.389 119.614C257.057 119.233 256.607 119.043 256.041 119.043ZM264.808 126.001V115.337H268.294C269.452 115.337 270.321 115.576 270.902 116.055C271.488 116.533 271.781 117.241 271.781 118.179C271.781 118.677 271.639 119.119 271.356 119.504C271.073 119.885 270.687 120.181 270.199 120.391C270.775 120.552 271.229 120.859 271.561 121.314C271.898 121.763 272.066 122.3 272.066 122.925C272.066 123.882 271.756 124.634 271.136 125.181C270.516 125.728 269.64 126.001 268.507 126.001H264.808ZM266.214 121.013V124.851H268.536C269.19 124.851 269.706 124.683 270.082 124.346C270.462 124.004 270.653 123.535 270.653 122.94C270.653 121.655 269.955 121.013 268.558 121.013H266.214ZM266.214 119.885H268.338C268.954 119.885 269.444 119.732 269.811 119.424C270.182 119.116 270.367 118.699 270.367 118.171C270.367 117.586 270.196 117.161 269.854 116.897C269.513 116.628 268.993 116.494 268.294 116.494H266.214V119.885ZM277.772 119.292C277.567 119.258 277.345 119.241 277.105 119.241C276.217 119.241 275.614 119.619 275.296 120.376V126.001H273.941V118.076H275.26L275.282 118.992C275.726 118.284 276.356 117.93 277.171 117.93C277.435 117.93 277.635 117.964 277.772 118.032V119.292ZM283.624 126.001C283.546 125.845 283.482 125.566 283.434 125.166C282.804 125.82 282.052 126.148 281.178 126.148C280.396 126.148 279.754 125.928 279.251 125.488C278.753 125.044 278.504 124.482 278.504 123.804C278.504 122.979 278.817 122.339 279.442 121.885C280.072 121.426 280.956 121.196 282.093 121.196H283.412V120.574C283.412 120.1 283.27 119.724 282.987 119.446C282.704 119.163 282.286 119.021 281.734 119.021C281.251 119.021 280.846 119.143 280.519 119.387C280.191 119.631 280.028 119.927 280.028 120.273H278.666C278.666 119.878 278.805 119.497 279.083 119.131C279.366 118.76 279.747 118.467 280.226 118.252C280.709 118.037 281.239 117.93 281.815 117.93C282.728 117.93 283.443 118.159 283.961 118.618C284.479 119.072 284.747 119.7 284.767 120.501V124.148C284.767 124.876 284.859 125.454 285.045 125.884V126.001H283.624ZM281.375 124.968C281.8 124.968 282.203 124.858 282.584 124.639C282.965 124.419 283.241 124.133 283.412 123.782V122.156H282.35C280.689 122.156 279.859 122.642 279.859 123.613C279.859 124.038 280.001 124.37 280.284 124.609C280.567 124.849 280.931 124.968 281.375 124.968ZM291.505 123.899C291.505 123.533 291.366 123.25 291.087 123.049C290.814 122.844 290.333 122.669 289.645 122.522C288.961 122.376 288.417 122.2 288.011 121.995C287.611 121.79 287.313 121.545 287.118 121.262C286.927 120.979 286.832 120.642 286.832 120.252C286.832 119.602 287.105 119.053 287.652 118.604C288.204 118.154 288.907 117.93 289.762 117.93C290.66 117.93 291.388 118.162 291.944 118.626C292.506 119.089 292.787 119.683 292.787 120.405H291.424C291.424 120.034 291.266 119.714 290.948 119.446C290.636 119.177 290.24 119.043 289.762 119.043C289.269 119.043 288.883 119.15 288.604 119.365C288.326 119.58 288.187 119.861 288.187 120.208C288.187 120.535 288.316 120.781 288.575 120.947C288.834 121.113 289.3 121.272 289.974 121.423C290.653 121.575 291.202 121.755 291.622 121.965C292.042 122.175 292.352 122.429 292.552 122.727C292.757 123.02 292.86 123.379 292.86 123.804C292.86 124.512 292.577 125.081 292.01 125.51C291.444 125.935 290.709 126.148 289.806 126.148C289.171 126.148 288.609 126.035 288.121 125.811C287.633 125.586 287.25 125.273 286.971 124.873C286.698 124.468 286.561 124.031 286.561 123.562H287.916C287.94 124.016 288.121 124.378 288.458 124.646C288.8 124.91 289.249 125.042 289.806 125.042C290.318 125.042 290.729 124.939 291.036 124.734C291.349 124.524 291.505 124.246 291.505 123.899ZM296.097 126.001H294.735V118.076H296.097V126.001ZM296.112 114.758H297.752L295.79 116.912H294.698L296.112 114.758ZM299.803 126.001H298.448V114.751H299.803V126.001ZM303.451 126.001H302.096V118.076H303.451V126.001ZM301.986 115.974C301.986 115.754 302.052 115.569 302.184 115.418C302.32 115.266 302.521 115.19 302.784 115.19C303.048 115.19 303.248 115.266 303.385 115.418C303.521 115.569 303.59 115.754 303.59 115.974C303.59 116.194 303.521 116.377 303.385 116.523C303.248 116.67 303.048 116.743 302.784 116.743C302.521 116.743 302.32 116.67 302.184 116.523C302.052 116.377 301.986 116.194 301.986 115.974ZM310.519 126.001C310.44 125.845 310.377 125.566 310.328 125.166C309.698 125.82 308.946 126.148 308.072 126.148C307.291 126.148 306.649 125.928 306.146 125.488C305.648 125.044 305.399 124.482 305.399 123.804C305.399 122.979 305.711 122.339 306.336 121.885C306.966 121.426 307.85 121.196 308.988 121.196H310.306V120.574C310.306 120.1 310.165 119.724 309.881 119.446C309.598 119.163 309.181 119.021 308.629 119.021C308.146 119.021 307.74 119.143 307.413 119.387C307.086 119.631 306.922 119.927 306.922 120.273H305.56C305.56 119.878 305.699 119.497 305.978 119.131C306.261 118.76 306.642 118.467 307.12 118.252C307.604 118.037 308.133 117.93 308.709 117.93C309.623 117.93 310.338 118.159 310.855 118.618C311.373 119.072 311.642 119.7 311.661 120.501V124.148C311.661 124.876 311.754 125.454 311.939 125.884V126.001H310.519ZM308.27 124.968C308.695 124.968 309.098 124.858 309.479 124.639C309.859 124.419 310.135 124.133 310.306 123.782V122.156H309.244C307.584 122.156 306.754 122.642 306.754 123.613C306.754 124.038 306.896 124.37 307.179 124.609C307.462 124.849 307.826 124.968 308.27 124.968ZM320.326 122.024H316.751V120.918H320.326V122.024ZM328.727 121.248C327.521 120.901 326.642 120.476 326.09 119.973C325.543 119.465 325.27 118.84 325.27 118.098C325.27 117.258 325.604 116.565 326.273 116.018C326.947 115.466 327.821 115.19 328.895 115.19C329.627 115.19 330.279 115.332 330.851 115.615C331.427 115.898 331.871 116.289 332.184 116.787C332.501 117.285 332.66 117.83 332.66 118.42H331.246C331.246 117.776 331.041 117.271 330.631 116.904C330.221 116.533 329.642 116.348 328.895 116.348C328.202 116.348 327.66 116.502 327.269 116.809C326.883 117.112 326.69 117.534 326.69 118.076C326.69 118.511 326.874 118.879 327.24 119.182C327.611 119.48 328.238 119.753 329.122 120.003C330.011 120.252 330.704 120.527 331.202 120.83C331.705 121.128 332.076 121.477 332.315 121.878C332.56 122.278 332.682 122.749 332.682 123.291C332.682 124.155 332.345 124.849 331.671 125.371C330.997 125.889 330.096 126.148 328.968 126.148C328.236 126.148 327.552 126.008 326.917 125.73C326.283 125.447 325.792 125.061 325.445 124.573C325.104 124.085 324.933 123.53 324.933 122.91H326.346C326.346 123.555 326.583 124.065 327.057 124.441C327.535 124.812 328.172 124.998 328.968 124.998C329.71 124.998 330.279 124.846 330.675 124.544C331.07 124.241 331.268 123.828 331.268 123.306C331.268 122.783 331.085 122.38 330.719 122.097C330.353 121.809 329.688 121.526 328.727 121.248ZM339.171 126.001C339.093 125.845 339.029 125.566 338.98 125.166C338.351 125.82 337.599 126.148 336.725 126.148C335.943 126.148 335.301 125.928 334.798 125.488C334.3 125.044 334.051 124.482 334.051 123.804C334.051 122.979 334.364 122.339 334.989 121.885C335.619 121.426 336.502 121.196 337.64 121.196H338.958V120.574C338.958 120.1 338.817 119.724 338.534 119.446C338.25 119.163 337.833 119.021 337.281 119.021C336.798 119.021 336.393 119.143 336.065 119.387C335.738 119.631 335.575 119.927 335.575 120.273H334.212C334.212 119.878 334.352 119.497 334.63 119.131C334.913 118.76 335.294 118.467 335.772 118.252C336.256 118.037 336.786 117.93 337.362 117.93C338.275 117.93 338.99 118.159 339.508 118.618C340.025 119.072 340.294 119.7 340.313 120.501V124.148C340.313 124.876 340.406 125.454 340.592 125.884V126.001H339.171ZM336.922 124.968C337.347 124.968 337.75 124.858 338.131 124.639C338.512 124.419 338.788 124.133 338.958 123.782V122.156H337.896C336.236 122.156 335.406 122.642 335.406 123.613C335.406 124.038 335.548 124.37 335.831 124.609C336.114 124.849 336.478 124.968 336.922 124.968ZM340.108 114.985C340.108 115.513 339.957 115.94 339.654 116.267C339.356 116.594 338.983 116.758 338.534 116.758C338.333 116.758 338.16 116.733 338.014 116.685C337.867 116.636 337.674 116.536 337.435 116.384C337.201 116.233 337.03 116.143 336.922 116.113C336.82 116.079 336.7 116.062 336.563 116.062C336.363 116.062 336.192 116.14 336.051 116.296C335.909 116.448 335.838 116.643 335.838 116.882L334.93 116.831C334.93 116.309 335.077 115.877 335.37 115.535C335.667 115.193 336.043 115.022 336.498 115.022C336.668 115.022 336.822 115.046 336.959 115.095C337.096 115.144 337.281 115.239 337.516 115.381C337.75 115.523 337.928 115.615 338.05 115.659C338.177 115.703 338.316 115.725 338.468 115.725C338.678 115.725 338.851 115.642 338.988 115.476C339.129 115.31 339.2 115.117 339.2 114.898L340.108 114.985ZM342.079 121.965C342.079 121.189 342.23 120.491 342.533 119.871C342.84 119.251 343.265 118.772 343.807 118.435C344.354 118.098 344.977 117.93 345.675 117.93C346.754 117.93 347.625 118.303 348.29 119.05C348.958 119.797 349.293 120.791 349.293 122.031V122.127C349.293 122.898 349.144 123.591 348.846 124.207C348.553 124.817 348.131 125.293 347.579 125.635C347.032 125.977 346.402 126.148 345.689 126.148C344.615 126.148 343.744 125.774 343.075 125.027C342.411 124.28 342.079 123.291 342.079 122.061V121.965ZM343.441 122.127C343.441 123.005 343.644 123.711 344.049 124.243C344.459 124.775 345.006 125.042 345.689 125.042C346.378 125.042 346.925 124.773 347.33 124.236C347.735 123.694 347.938 122.937 347.938 121.965C347.938 121.096 347.73 120.393 347.315 119.856C346.905 119.314 346.358 119.043 345.675 119.043C345.006 119.043 344.466 119.309 344.056 119.841C343.646 120.374 343.441 121.135 343.441 122.127ZM356.332 121.826V126.001H354.925V115.337H358.858C360.025 115.337 360.938 115.635 361.598 116.231C362.262 116.826 362.594 117.615 362.594 118.596C362.594 119.631 362.269 120.43 361.62 120.991C360.975 121.548 360.05 121.826 358.844 121.826H356.332ZM356.332 120.676H358.858C359.61 120.676 360.187 120.501 360.587 120.149C360.987 119.793 361.188 119.28 361.188 118.611C361.188 117.976 360.987 117.468 360.587 117.087C360.187 116.707 359.637 116.509 358.939 116.494H356.332V120.676ZM368.98 126.001C368.902 125.845 368.839 125.566 368.79 125.166C368.16 125.82 367.408 126.148 366.534 126.148C365.753 126.148 365.111 125.928 364.608 125.488C364.11 125.044 363.861 124.482 363.861 123.804C363.861 122.979 364.173 122.339 364.798 121.885C365.428 121.426 366.312 121.196 367.45 121.196H368.768V120.574C368.768 120.1 368.626 119.724 368.343 119.446C368.06 119.163 367.643 119.021 367.091 119.021C366.607 119.021 366.202 119.143 365.875 119.387C365.548 119.631 365.384 119.927 365.384 120.273H364.022C364.022 119.878 364.161 119.497 364.439 119.131C364.723 118.76 365.104 118.467 365.582 118.252C366.065 118.037 366.595 117.93 367.171 117.93C368.084 117.93 368.8 118.159 369.317 118.618C369.835 119.072 370.104 119.7 370.123 120.501V124.148C370.123 124.876 370.216 125.454 370.401 125.884V126.001H368.98ZM366.732 124.968C367.157 124.968 367.56 124.858 367.94 124.639C368.321 124.419 368.597 124.133 368.768 123.782V122.156H367.706C366.046 122.156 365.216 122.642 365.216 123.613C365.216 124.038 365.357 124.37 365.641 124.609C365.924 124.849 366.288 124.968 366.732 124.968ZM377.14 125.217C376.612 125.837 375.838 126.148 374.818 126.148C373.973 126.148 373.329 125.903 372.884 125.415C372.445 124.922 372.223 124.194 372.218 123.232V118.076H373.573V123.196C373.573 124.397 374.061 124.998 375.038 124.998C376.073 124.998 376.761 124.612 377.103 123.84V118.076H378.458V126.001H377.169L377.14 125.217ZM381.996 126.001H380.641V114.751H381.996V126.001ZM383.812 121.965C383.812 121.189 383.963 120.491 384.266 119.871C384.574 119.251 384.999 118.772 385.541 118.435C386.087 118.098 386.71 117.93 387.408 117.93C388.487 117.93 389.359 118.303 390.023 119.05C390.692 119.797 391.026 120.791 391.026 122.031V122.127C391.026 122.898 390.877 123.591 390.58 124.207C390.287 124.817 389.864 125.293 389.312 125.635C388.766 125.977 388.136 126.148 387.423 126.148C386.349 126.148 385.477 125.774 384.808 125.027C384.144 124.28 383.812 123.291 383.812 122.061V121.965ZM385.174 122.127C385.174 123.005 385.377 123.711 385.782 124.243C386.192 124.775 386.739 125.042 387.423 125.042C388.111 125.042 388.658 124.773 389.063 124.236C389.469 123.694 389.671 122.937 389.671 121.965C389.671 121.096 389.464 120.393 389.049 119.856C388.639 119.314 388.092 119.043 387.408 119.043C386.739 119.043 386.2 119.309 385.79 119.841C385.379 120.374 385.174 121.135 385.174 122.127Z" fill="#B3B3B3"/>
<rect x="139.247" y="143" width="144" height="40" rx="8" fill="#FF6F20"/>
<path d="M33.1633 46.1185L29.0383 32.6771H28.9329C29.0813 35.4115 29.1555 37.2357 29.1555 38.1498V46.1185H25.9094V28.9857H30.8547L34.9094 42.0873H34.9797L39.2805 28.9857H44.2258V46.1185H40.8391V38.0092C40.8391 37.6263 40.843 37.1849 40.8508 36.6849C40.8665 36.1849 40.9211 34.8568 41.0149 32.7006H40.9094L36.4915 46.1185H33.1633ZM53.6946 35.3138C52.9368 35.3138 52.343 35.556 51.9133 36.0404C51.4836 36.517 51.2375 37.1967 51.175 38.0795H56.1907C56.175 37.1967 55.9446 36.517 55.4993 36.0404C55.054 35.556 54.4524 35.3138 53.6946 35.3138ZM54.1985 46.3529C52.0891 46.3529 50.4407 45.7709 49.2532 44.6068C48.0657 43.4427 47.4719 41.7943 47.4719 39.6615C47.4719 37.4662 48.0188 35.7709 49.1125 34.5756C50.2141 33.3724 51.7336 32.7709 53.6711 32.7709C55.5227 32.7709 56.9641 33.2982 57.9954 34.3529C59.0266 35.4076 59.5422 36.8646 59.5422 38.724V40.4584H51.093C51.1321 41.474 51.4329 42.267 51.9954 42.8373C52.5579 43.4076 53.3469 43.6927 54.3625 43.6927C55.1516 43.6927 55.8977 43.6107 56.6008 43.4467C57.304 43.2826 58.0383 43.0209 58.804 42.6615V45.4271C58.179 45.7396 57.511 45.9701 56.8 46.1185C56.0891 46.2748 55.2219 46.3529 54.1985 46.3529ZM74.5422 46.1185H70.968V38.4662C70.968 37.5209 70.8 36.8138 70.4641 36.3451C70.1282 35.8685 69.593 35.6302 68.8586 35.6302C67.8586 35.6302 67.136 35.9662 66.6907 36.6381C66.2454 37.3021 66.0227 38.4076 66.0227 39.9545V46.1185H62.4485V33.017H65.179L65.6594 34.6927H65.8586C66.2571 34.0599 66.804 33.5834 67.4993 33.2631C68.2024 32.9349 68.9993 32.7709 69.8899 32.7709C71.4133 32.7709 72.5696 33.1849 73.3586 34.0131C74.1477 34.8334 74.5422 36.0209 74.5422 37.5756V46.1185ZM83.7415 43.5052C84.3665 43.5052 85.1165 43.3685 85.9915 43.0951V45.7552C85.1008 46.1537 84.0071 46.3529 82.7102 46.3529C81.2805 46.3529 80.2375 45.9935 79.5813 45.2748C78.9329 44.5482 78.6086 43.4623 78.6086 42.017V35.7006H76.8977V34.1888L78.8665 32.9935L79.8977 30.2279H82.1829V33.017H85.8508V35.7006H82.1829V42.017C82.1829 42.5248 82.3235 42.8998 82.6047 43.142C82.8938 43.3842 83.2727 43.5052 83.7415 43.5052ZM91.4993 39.5443C91.4993 40.8412 91.7102 41.8217 92.1321 42.4857C92.5618 43.1498 93.2571 43.4818 94.218 43.4818C95.1711 43.4818 95.8547 43.1537 96.2688 42.4974C96.6907 41.8334 96.9016 40.849 96.9016 39.5443C96.9016 38.2474 96.6907 37.2748 96.2688 36.6263C95.8469 35.9779 95.1555 35.6537 94.1946 35.6537C93.2415 35.6537 92.554 35.9779 92.1321 36.6263C91.7102 37.267 91.4993 38.2396 91.4993 39.5443ZM100.558 39.5443C100.558 41.6771 99.9954 43.3451 98.8704 44.5482C97.7454 45.7513 96.179 46.3529 94.1711 46.3529C92.9133 46.3529 91.804 46.0795 90.843 45.5326C89.8821 44.9779 89.1438 44.1849 88.6282 43.1537C88.1125 42.1224 87.8547 40.9193 87.8547 39.5443C87.8547 37.4037 88.4133 35.7396 89.5305 34.5521C90.6477 33.3646 92.218 32.7709 94.2415 32.7709C95.4993 32.7709 96.6086 33.0443 97.5696 33.5912C98.5305 34.1381 99.2688 34.9232 99.7844 35.9467C100.3 36.9701 100.558 38.1693 100.558 39.5443ZM110.823 32.7709C111.308 32.7709 111.71 32.806 112.031 32.8763L111.761 36.2279C111.472 36.1498 111.12 36.1107 110.706 36.1107C109.566 36.1107 108.675 36.4037 108.034 36.9896C107.402 37.5756 107.085 38.3959 107.085 39.4506V46.1185H103.511V33.017H106.218L106.745 35.2201H106.921C107.327 34.4857 107.874 33.8959 108.562 33.4506C109.257 32.9974 110.011 32.7709 110.823 32.7709ZM114.257 29.6302C114.257 28.4662 114.906 27.8842 116.202 27.8842C117.499 27.8842 118.148 28.4662 118.148 29.6302C118.148 30.1849 117.984 30.6185 117.656 30.931C117.335 31.2357 116.851 31.3881 116.202 31.3881C114.906 31.3881 114.257 30.8021 114.257 29.6302ZM117.984 46.1185H114.409V33.017H117.984V46.1185ZM130.066 46.1185L129.374 44.3373H129.281C128.679 45.0951 128.058 45.6224 127.417 45.9193C126.784 46.2084 125.956 46.3529 124.933 46.3529C123.675 46.3529 122.683 45.9935 121.956 45.2748C121.238 44.556 120.878 43.5326 120.878 42.2045C120.878 40.8138 121.363 39.7904 122.331 39.1342C123.308 38.4701 124.777 38.1029 126.738 38.0326L129.011 37.9623V37.3881C129.011 36.0599 128.331 35.3959 126.972 35.3959C125.925 35.3959 124.695 35.7123 123.281 36.3451L122.097 33.931C123.605 33.142 125.277 32.7474 127.113 32.7474C128.87 32.7474 130.218 33.1302 131.156 33.8959C132.093 34.6615 132.562 35.8256 132.562 37.3881V46.1185H130.066ZM129.011 40.0482L127.628 40.0951C126.589 40.1263 125.816 40.3138 125.308 40.6576C124.8 41.0013 124.546 41.5248 124.546 42.2279C124.546 43.2357 125.124 43.7396 126.281 43.7396C127.109 43.7396 127.769 43.5013 128.261 43.0248C128.761 42.5482 129.011 41.9154 129.011 41.1263V40.0482ZM145.394 42.2279C145.394 43.5717 144.925 44.5951 143.988 45.2982C143.058 46.0013 141.663 46.3529 139.804 46.3529C138.851 46.3529 138.038 46.2865 137.366 46.1537C136.695 46.0287 136.066 45.8412 135.48 45.5912V42.6381C136.144 42.9506 136.89 43.2123 137.718 43.4232C138.554 43.6342 139.288 43.7396 139.921 43.7396C141.218 43.7396 141.866 43.3646 141.866 42.6146C141.866 42.3334 141.781 42.1068 141.609 41.9349C141.437 41.7552 141.14 41.556 140.718 41.3373C140.296 41.1107 139.734 40.849 139.031 40.5521C138.023 40.1302 137.281 39.7396 136.804 39.3802C136.335 39.0209 135.991 38.6107 135.773 38.1498C135.562 37.681 135.456 37.1068 135.456 36.4271C135.456 35.2631 135.906 34.3646 136.804 33.7318C137.71 33.0912 138.991 32.7709 140.648 32.7709C142.226 32.7709 143.761 33.1146 145.253 33.8021L144.175 36.3802C143.519 36.099 142.906 35.8685 142.335 35.6888C141.765 35.5092 141.183 35.4193 140.589 35.4193C139.534 35.4193 139.007 35.7045 139.007 36.2748C139.007 36.5951 139.175 36.8724 139.511 37.1068C139.855 37.3412 140.601 37.6888 141.749 38.1498C142.773 38.5638 143.523 38.9506 143.999 39.3099C144.476 39.6693 144.827 40.0834 145.054 40.5521C145.281 41.0209 145.394 41.5795 145.394 42.2279Z" fill="#0C0B0B"/>
<path d="M166.058 169.776L165.131 167.199H161.583L160.675 169.776H159.075L162.547 160.458H164.198L167.67 169.776H166.058ZM164.731 165.892L163.861 163.365C163.798 163.196 163.709 162.929 163.595 162.566C163.485 162.202 163.409 161.935 163.366 161.766C163.252 162.286 163.085 162.855 162.865 163.473L162.027 165.892H164.731ZM174.665 162.756V163.575L173.465 163.797C173.575 163.945 173.666 164.127 173.738 164.343C173.81 164.559 173.846 164.787 173.846 165.028C173.846 165.752 173.597 166.321 173.097 166.736C172.598 167.151 171.91 167.358 171.034 167.358C170.81 167.358 170.607 167.341 170.425 167.307C170.103 167.506 169.942 167.739 169.942 168.005C169.942 168.166 170.016 168.287 170.165 168.367C170.317 168.448 170.594 168.488 170.996 168.488H172.221C172.996 168.488 173.584 168.653 173.986 168.983C174.388 169.313 174.589 169.789 174.589 170.411C174.589 171.207 174.261 171.82 173.605 172.252C172.949 172.684 172.001 172.9 170.761 172.9C169.805 172.9 169.075 172.73 168.571 172.392C168.068 172.053 167.816 171.571 167.816 170.944C167.816 170.513 167.951 170.149 168.222 169.853C168.497 169.561 168.88 169.358 169.371 169.243C169.172 169.159 169.007 169.023 168.876 168.837C168.749 168.647 168.686 168.448 168.686 168.24C168.686 167.978 168.76 167.756 168.908 167.574C169.056 167.392 169.276 167.212 169.568 167.034C169.204 166.878 168.908 166.624 168.679 166.273C168.455 165.917 168.343 165.502 168.343 165.028C168.343 164.267 168.582 163.676 169.06 163.257C169.542 162.839 170.228 162.629 171.117 162.629C171.316 162.629 171.523 162.644 171.739 162.673C171.959 162.699 172.124 162.726 172.234 162.756H174.665ZM169.149 170.868C169.149 171.19 169.293 171.437 169.581 171.611C169.873 171.784 170.281 171.871 170.806 171.871C171.618 171.871 172.223 171.755 172.621 171.522C173.019 171.289 173.218 170.98 173.218 170.595C173.218 170.291 173.108 170.073 172.888 169.942C172.672 169.815 172.268 169.751 171.675 169.751H170.545C170.118 169.751 169.777 169.851 169.523 170.049C169.274 170.253 169.149 170.526 169.149 170.868ZM169.79 165.028C169.79 165.469 169.902 165.807 170.126 166.044C170.355 166.281 170.681 166.4 171.104 166.4C171.967 166.4 172.399 165.938 172.399 165.016C172.399 164.559 172.291 164.207 172.075 163.962C171.864 163.712 171.54 163.588 171.104 163.588C170.672 163.588 170.344 163.71 170.12 163.956C169.9 164.201 169.79 164.559 169.79 165.028ZM179.039 169.903C177.947 169.903 177.092 169.586 176.474 168.951C175.861 168.312 175.554 167.434 175.554 166.317C175.554 165.17 175.839 164.269 176.411 163.613C176.982 162.957 177.767 162.629 178.766 162.629C179.692 162.629 180.424 162.91 180.962 163.473C181.499 164.036 181.768 164.811 181.768 165.797V166.603H177.09C177.111 167.284 177.295 167.809 177.642 168.177C177.989 168.541 178.478 168.723 179.108 168.723C179.523 168.723 179.908 168.685 180.264 168.609C180.623 168.528 181.008 168.397 181.419 168.215V169.427C181.055 169.601 180.687 169.724 180.314 169.796C179.942 169.867 179.517 169.903 179.039 169.903ZM178.766 163.759C178.292 163.759 177.911 163.909 177.623 164.21C177.34 164.51 177.17 164.948 177.115 165.524H180.302C180.293 164.944 180.154 164.506 179.883 164.21C179.612 163.909 179.24 163.759 178.766 163.759ZM189.639 169.776H188.141V165.46C188.141 164.918 188.031 164.514 187.811 164.248C187.595 163.981 187.25 163.848 186.776 163.848C186.146 163.848 185.685 164.034 185.393 164.406C185.101 164.779 184.955 165.403 184.955 166.279V169.776H183.463V162.756H184.631L184.84 163.676H184.917C185.128 163.342 185.429 163.084 185.818 162.902C186.207 162.72 186.639 162.629 187.113 162.629C188.797 162.629 189.639 163.486 189.639 165.2V169.776ZM194.083 169.903C193.207 169.903 192.523 169.586 192.032 168.951C191.541 168.317 191.296 167.426 191.296 166.279C191.296 165.128 191.543 164.233 192.039 163.594C192.538 162.951 193.228 162.629 194.108 162.629C195.03 162.629 195.733 162.97 196.215 163.651H196.292C196.22 163.147 196.184 162.75 196.184 162.458V159.9H197.682V169.776H196.514L196.253 168.856H196.184C195.705 169.554 195.005 169.903 194.083 169.903ZM194.482 168.697C195.096 168.697 195.542 168.526 195.822 168.183C196.101 167.836 196.245 167.276 196.253 166.501V166.292C196.253 165.407 196.11 164.779 195.822 164.406C195.534 164.034 195.083 163.848 194.47 163.848C193.945 163.848 193.541 164.061 193.257 164.489C192.974 164.912 192.832 165.517 192.832 166.304C192.832 167.083 192.97 167.678 193.245 168.088C193.52 168.494 193.932 168.697 194.482 168.697ZM204.207 169.776L203.909 168.799H203.858C203.519 169.226 203.179 169.518 202.836 169.675C202.493 169.827 202.053 169.903 201.516 169.903C200.826 169.903 200.286 169.717 199.897 169.345C199.512 168.972 199.319 168.446 199.319 167.764C199.319 167.041 199.588 166.495 200.125 166.127C200.663 165.758 201.482 165.557 202.582 165.524L203.794 165.485V165.111C203.794 164.662 203.689 164.328 203.477 164.108C203.27 163.884 202.946 163.772 202.506 163.772C202.146 163.772 201.801 163.825 201.471 163.93C201.141 164.036 200.824 164.161 200.519 164.305L200.037 163.238C200.417 163.04 200.834 162.889 201.287 162.788C201.74 162.682 202.167 162.629 202.569 162.629C203.462 162.629 204.135 162.824 204.588 163.213C205.045 163.602 205.273 164.214 205.273 165.047V169.776H204.207ZM201.985 168.761C202.527 168.761 202.961 168.611 203.287 168.31C203.617 168.005 203.782 167.58 203.782 167.034V166.425L202.88 166.463C202.178 166.488 201.666 166.607 201.344 166.818C201.027 167.026 200.868 167.345 200.868 167.777C200.868 168.09 200.961 168.333 201.147 168.507C201.334 168.676 201.613 168.761 201.985 168.761ZM210.917 162.629C211.217 162.629 211.465 162.65 211.659 162.693L211.513 164.083C211.302 164.032 211.082 164.006 210.853 164.006C210.256 164.006 209.772 164.201 209.399 164.59C209.031 164.98 208.847 165.485 208.847 166.108V169.776H207.355V162.756H208.523L208.72 163.994H208.796C209.029 163.575 209.332 163.243 209.704 162.997C210.081 162.752 210.485 162.629 210.917 162.629ZM222.26 169.776H220.762V165.447C220.762 164.91 220.66 164.51 220.457 164.248C220.254 163.981 219.937 163.848 219.505 163.848C218.929 163.848 218.506 164.036 218.235 164.413C217.969 164.785 217.835 165.407 217.835 166.279V169.776H216.344V162.756H217.512L217.721 163.676H217.797C217.992 163.342 218.273 163.084 218.642 162.902C219.014 162.72 219.422 162.629 219.867 162.629C220.946 162.629 221.661 162.997 222.012 163.734H222.114C222.321 163.387 222.613 163.116 222.99 162.921C223.366 162.726 223.798 162.629 224.285 162.629C225.123 162.629 225.732 162.841 226.113 163.264C226.498 163.687 226.69 164.332 226.69 165.2V169.776H225.199V165.447C225.199 164.91 225.095 164.51 224.888 164.248C224.685 163.981 224.367 163.848 223.936 163.848C223.356 163.848 222.931 164.03 222.66 164.394C222.393 164.753 222.26 165.308 222.26 166.057V169.776ZM231.838 169.903C230.747 169.903 229.892 169.586 229.274 168.951C228.66 168.312 228.354 167.434 228.354 166.317C228.354 165.17 228.639 164.269 229.21 163.613C229.782 162.957 230.567 162.629 231.565 162.629C232.492 162.629 233.224 162.91 233.762 163.473C234.299 164.036 234.568 164.811 234.568 165.797V166.603H229.89C229.911 167.284 230.095 167.809 230.442 168.177C230.789 168.541 231.278 168.723 231.908 168.723C232.323 168.723 232.708 168.685 233.063 168.609C233.423 168.528 233.808 168.397 234.219 168.215V169.427C233.855 169.601 233.487 169.724 233.114 169.796C232.742 169.867 232.317 169.903 231.838 169.903ZM231.565 163.759C231.091 163.759 230.711 163.909 230.423 164.21C230.139 164.51 229.97 164.948 229.915 165.524H233.102C233.093 164.944 232.953 164.506 232.683 164.21C232.412 163.909 232.039 163.759 231.565 163.759ZM242.439 169.776H240.941V165.46C240.941 164.918 240.831 164.514 240.611 164.248C240.395 163.981 240.05 163.848 239.576 163.848C238.946 163.848 238.484 164.034 238.192 164.406C237.9 164.779 237.754 165.403 237.754 166.279V169.776H236.263V162.756H237.431L237.64 163.676H237.716C237.928 163.342 238.228 163.084 238.618 162.902C239.007 162.72 239.439 162.629 239.913 162.629C241.597 162.629 242.439 163.486 242.439 165.2V169.776ZM247.13 168.697C247.494 168.697 247.858 168.64 248.222 168.526V169.65C248.057 169.721 247.843 169.781 247.581 169.827C247.322 169.878 247.054 169.903 246.774 169.903C245.361 169.903 244.654 169.159 244.654 167.669V163.886H243.696V163.226L244.724 162.68L245.232 161.194H246.152V162.756H248.152V163.886H246.152V167.644C246.152 168.003 246.241 168.27 246.419 168.443C246.601 168.613 246.838 168.697 247.13 168.697ZM255.858 166.254C255.858 167.4 255.564 168.295 254.976 168.939C254.387 169.582 253.569 169.903 252.519 169.903C251.863 169.903 251.283 169.755 250.78 169.459C250.276 169.163 249.889 168.738 249.618 168.183C249.347 167.629 249.212 166.986 249.212 166.254C249.212 165.115 249.504 164.227 250.088 163.588C250.672 162.949 251.495 162.629 252.557 162.629C253.573 162.629 254.377 162.957 254.969 163.613C255.562 164.265 255.858 165.145 255.858 166.254ZM250.748 166.254C250.748 167.874 251.347 168.685 252.544 168.685C253.729 168.685 254.322 167.874 254.322 166.254C254.322 164.65 253.725 163.848 252.532 163.848C251.905 163.848 251.451 164.055 251.167 164.47C250.888 164.885 250.748 165.479 250.748 166.254ZM261.139 162.629C261.44 162.629 261.687 162.65 261.882 162.693L261.736 164.083C261.524 164.032 261.304 164.006 261.076 164.006C260.479 164.006 259.994 164.201 259.622 164.59C259.254 164.98 259.07 165.485 259.07 166.108V169.776H257.578V162.756H258.746L258.943 163.994H259.019C259.252 163.575 259.554 163.243 259.927 162.997C260.303 162.752 260.708 162.629 261.139 162.629ZM264.681 169.776H263.189V162.756H264.681V169.776ZM263.101 160.896C263.101 160.63 263.173 160.424 263.316 160.28C263.465 160.137 263.674 160.065 263.945 160.065C264.207 160.065 264.41 160.137 264.554 160.28C264.702 160.424 264.776 160.63 264.776 160.896C264.776 161.15 264.702 161.351 264.554 161.499C264.41 161.643 264.207 161.715 263.945 161.715C263.674 161.715 263.465 161.643 263.316 161.499C263.173 161.351 263.101 161.15 263.101 160.896ZM271.213 169.776L270.915 168.799H270.864C270.525 169.226 270.185 169.518 269.842 169.675C269.499 169.827 269.059 169.903 268.521 169.903C267.832 169.903 267.292 169.717 266.903 169.345C266.518 168.972 266.325 168.446 266.325 167.764C266.325 167.041 266.594 166.495 267.131 166.127C267.669 165.758 268.488 165.557 269.588 165.524L270.8 165.485V165.111C270.8 164.662 270.694 164.328 270.483 164.108C270.276 163.884 269.952 163.772 269.512 163.772C269.152 163.772 268.807 163.825 268.477 163.93C268.147 164.036 267.83 164.161 267.525 164.305L267.042 163.238C267.423 163.04 267.84 162.889 268.293 162.788C268.746 162.682 269.173 162.629 269.575 162.629C270.468 162.629 271.141 162.824 271.594 163.213C272.051 163.602 272.279 164.214 272.279 165.047V169.776H271.213ZM268.991 168.761C269.533 168.761 269.967 168.611 270.292 168.31C270.623 168.005 270.788 167.58 270.788 167.034V166.425L269.886 166.463C269.184 166.488 268.672 166.607 268.35 166.818C268.033 167.026 267.874 167.345 267.874 167.777C267.874 168.09 267.967 168.333 268.153 168.507C268.34 168.676 268.619 168.761 268.991 168.761Z" fill="white"/>
</svg>
